<svg width="75" height="50" viewBox="0 0 75 50" fill="none" xmlns="http://www.w3.org/2000/svg">
<g clip-path="url(#clip0_167_632)">
<mask id="mask0_167_632" style="mask-type:luminance" maskUnits="userSpaceOnUse" x="0" y="0" width="75" height="50">
<path d="M75 0H0V49.9482H75V0Z" fill="white"/>
</mask>
<g mask="url(#mask0_167_632)">
<path d="M17.9914 49.7056L12.6445 10.4986C12.6445 10.4986 25.9588 10.3342 30.3468 10.3342C40.1458 10.3342 69.393 10.4986 69.393 10.4986L74.7398 49.7056H17.9914Z" fill="#E3E3FF" stroke="#010101" stroke-width="0.5" stroke-linecap="round" stroke-linejoin="round"/>
<path d="M37.5218 37.5018L35.3374 15.9591C35.3374 15.9591 46.7684 15.7354 49.7806 15.7354C54.5391 15.7354 66.4209 15.9591 66.4209 15.9591L68.6052 37.5018C68.6052 37.5018 54.0103 37.7255 49.5693 37.7255C46.2395 37.7255 37.5218 37.5018 37.5218 37.5018Z" fill="white" stroke="#010101" stroke-width="0.5" stroke-linecap="round" stroke-linejoin="round"/>
<path d="M23.4497 41.2725C30.2399 41.5348 37.0401 41.5325 43.8303 41.2658" stroke="#010101" stroke-width="0.5" stroke-linecap="round" stroke-linejoin="round"/>
<path d="M23.4546 44.2842C30.3924 44.3377 37.3302 44.3916 44.2681 44.4451" stroke="#010101" stroke-width="0.5" stroke-linecap="round" stroke-linejoin="round"/>
<path d="M23.7827 46.9161L32.305 46.9819" stroke="#010101" stroke-width="0.5" stroke-linecap="round" stroke-linejoin="round"/>
<path d="M50.2275 41.6182C56.2444 41.7307 62.2631 41.7582 68.2806 41.7009" stroke="#010101" stroke-width="0.5" stroke-linecap="round" stroke-linejoin="round"/>
<path d="M50.5659 44.1997C56.5273 44.2301 62.4894 44.1532 68.4481 43.9693" stroke="#010101" stroke-width="0.5" stroke-linecap="round" stroke-linejoin="round"/>
<path d="M51.4468 46.6638C52.989 46.8445 54.545 46.907 56.0969 46.8512" stroke="#010101" stroke-width="0.5" stroke-linecap="round" stroke-linejoin="round"/>
<path d="M19.5201 49.5982C18.1642 47.5743 16.6281 45.6705 14.9353 43.9161C14.2518 43.2076 13.5331 42.5161 12.6779 42.026C11.8227 41.536 10.8105 41.2602 9.84086 41.4404C9.45787 41.5117 9.07136 41.6643 8.82395 41.964C8.47794 42.3825 8.47853 42.9825 8.55161 43.5199C8.91816 46.2137 12.0402 49.7053 12.0402 49.7053C12.0402 49.7053 17.567 49.8032 19.5201 49.598V49.5982Z" fill="#55D087" stroke="#010101" stroke-width="0.5" stroke-linecap="round" stroke-linejoin="round"/>
<path d="M10.3169 41.8038C12.2524 44.2161 13.9769 46.7962 15.4642 49.5056" stroke="#010101" stroke-width="0.5" stroke-linecap="round" stroke-linejoin="round"/>
<path d="M12.1925 49.7289C12.1925 49.7289 9.72608 46.1477 7.68347 45.3278C7.01844 45.0608 6.21784 45.0895 5.57864 45.4132C4.84054 45.7868 4.43231 46.6602 4.49629 47.4827C4.56027 48.305 5.04069 49.0588 5.51466 49.7126C8.28334 49.6409 12.1925 49.7289 12.1925 49.7289Z" fill="#55D087" stroke="#010101" stroke-width="0.5" stroke-linecap="round" stroke-linejoin="round"/>
<path d="M6.21777 45.3073C6.87311 46.7246 7.52815 48.1421 8.18349 49.5594" stroke="#010101" stroke-width="0.5" stroke-linecap="round" stroke-linejoin="round"/>
<path d="M39.4028 29.2769C41.8064 26.853 44.2851 24.4995 46.9702 22.3784C49.7744 23.8433 56.7999 27.3679 56.7999 27.3679C56.7999 27.3679 60.8948 22.1155 63.6119 19.698" stroke="#010101" stroke-width="0.5" stroke-linecap="round" stroke-linejoin="round"/>
<path d="M61.1367 19.5106L63.8156 19.5275C63.8631 20.341 63.8596 21.1573 63.8053 21.9705" stroke="#010101" stroke-width="0.5" stroke-linecap="round" stroke-linejoin="round"/>
<path d="M39.9148 30.4167C40.0666 31.8854 40.2183 32.6699 40.3697 34.1386C40.9033 34.0971 41.4371 34.0556 41.9707 34.0141C41.8107 32.5345 41.6508 31.7392 41.4908 30.2597C40.9658 30.2278 40.4411 30.1962 39.9146 30.4167H39.9148Z" fill="#045571" stroke="#010101" stroke-width="0.5" stroke-linecap="round" stroke-linejoin="round"/>
<path d="M56.604 29.434C56.7557 30.9027 56.9779 33.012 57.1296 34.481C57.6632 34.4395 58.197 34.398 58.7305 34.3565C58.5706 32.8769 58.3402 30.7568 58.1803 29.2772C57.6552 29.2454 57.1305 29.2135 56.604 29.434Z" fill="#045571" stroke="#010101" stroke-width="0.5" stroke-linecap="round" stroke-linejoin="round"/>
<path d="M45.2095 25.6489C45.2095 25.6489 45.5834 32.8296 45.7351 34.2986C46.2686 34.257 47.336 34.2986 47.336 34.2986L46.7857 25.4921L45.2095 25.6489Z" fill="#045571" stroke="#010101" stroke-width="0.5" stroke-linecap="round" stroke-linejoin="round"/>
<path d="M62.2725 23.1164C62.2725 23.1164 62.7875 32.8292 62.9392 34.2982C63.4728 34.2567 64.5402 34.2982 64.5402 34.2982L63.8487 22.9594L62.2725 23.1164Z" fill="#045571" stroke="#010101" stroke-width="0.5" stroke-linecap="round" stroke-linejoin="round"/>
<path d="M51.371 27.7076C51.371 27.7076 51.3214 33.012 51.4732 34.4807C52.0067 34.4392 53.0741 34.4807 53.0741 34.4807L52.9473 27.5506L51.371 27.7076Z" fill="#045571" stroke="#010101" stroke-width="0.5" stroke-linecap="round" stroke-linejoin="round"/>
<path d="M0.220215 24.0769C8.82823 24.2474 26.0812 23.5529 26.0812 23.5529C26.0812 23.5529 27.8309 31.0868 28.3246 34.924C27.2105 33.767 26.0222 32.6807 24.8903 31.6512C20.3607 31.6512 15.3699 31.831 10.5653 31.9117C3.75399 32.026 1.9444 32.0632 1.9444 32.0632C1.9444 32.0632 0.776063 26.7044 0.220215 24.0769Z" fill="#045571" stroke="#010101" stroke-width="0.5" stroke-linecap="round" stroke-linejoin="round"/>
<path d="M5.07715 29.8482C5.41113 28.5374 5.78384 27.157 6.75056 26.2076C6.97507 25.9871 7.23686 25.7907 7.54207 25.7132C8.30658 25.5193 9.05407 26.1263 9.45438 26.8035C9.85468 27.4807 10.0675 28.2722 10.5769 28.8722C10.8475 29.1906 11.2308 29.4547 11.649 29.4357C12.4901 29.3977 12.8658 28.3521 13.5816 27.9103C14.2569 27.4933 15.1393 27.6754 15.8716 27.9819C16.6038 28.2883 17.3164 28.7129 18.1096 28.7538C19.3161 28.8164 20.4246 27.9778 21.6326 28.0047C22.4343 28.0225 23.3476 28.393 23.9666 27.8854" stroke="#010101" stroke-width="0.5" stroke-linecap="round" stroke-linejoin="round"/>
</g>
</g>
<defs>
<clipPath id="clip0_167_632">
<rect width="75" height="50" fill="white"/>
</clipPath>
</defs>
</svg>
