<svg width="67" height="50" viewBox="0 0 67 50" fill="none" xmlns="http://www.w3.org/2000/svg">
<g clip-path="url(#clip0_167_464)">
<mask id="mask0_167_464" style="mask-type:luminance" maskUnits="userSpaceOnUse" x="0" y="0" width="67" height="50">
<path d="M0 0H67V50H0V0Z" fill="white"/>
</mask>
<g mask="url(#mask0_167_464)">
<path d="M20.8232 36.9725C19.2755 34.2766 19.4108 34.1565 17.8627 31.4605C16.7791 29.5732 15.5756 27.5754 13.3781 26.5225C12.1924 25.9545 10.5573 25.7553 9.50886 26.4932C7.06259 28.2144 8.72913 32.7691 11.0749 37.4937C14.7711 37.5418 17.516 37.1789 20.8232 36.973V36.9725Z" fill="#55D087" stroke="#010101" stroke-width="0.5" stroke-linecap="round" stroke-linejoin="round"/>
<path d="M11.1536 27.3763C12.4327 31.4973 13.502 33.3012 15.3608 37.2682" stroke="#010101" stroke-width="0.5" stroke-linecap="round" stroke-linejoin="round"/>
<path d="M11.9834 37.4822C9.31932 33.4464 7.97937 30.6854 4.26615 29.6109C3.53826 29.4004 2.69866 29.3138 2.01165 29.6087C1.23459 29.9424 0.624728 30.6847 0.733025 31.3965C1.1482 34.1259 2.77653 35.6061 3.77261 37.5634C7.10472 37.5195 9.46339 37.5155 11.9834 37.4822Z" fill="#55D087" stroke="#010101" stroke-width="0.5" stroke-linecap="round" stroke-linejoin="round"/>
<path d="M2.90648 30.0441C4.74752 33.2574 5.18289 34.3019 7.55859 37.2685" stroke="#010101" stroke-width="0.5" stroke-linecap="round" stroke-linejoin="round"/>
<path d="M54.8404 14.9371C55.1901 13.734 55.5342 12.4085 55.038 11.2605C54.8068 10.726 54.4109 10.2831 53.9852 9.89182C51.9746 8.04347 33.6857 1.7283 30.5463 0.882701C28.8965 0.438302 27.3203 1.06071 26.3208 3.12827C24.3513 7.20259 18.0808 27.996 15.9171 37.2774C15.7613 37.9455 15.6097 38.6625 15.8504 39.3038C16.0787 39.9123 16.6204 40.3373 17.1714 40.6668C18.0506 41.1926 19.0117 41.5575 19.9737 41.9009C23.8658 43.2904 36.1677 47.8717 40.2243 48.6267C40.9717 48.7657 41.7624 48.8906 42.4752 48.6225C43.6005 48.1992 44.1775 46.9561 44.635 45.825C47.423 38.9286 54.9387 14.7884 54.8406 14.9369L54.8404 14.9371Z" fill="#045571" stroke="#010101" stroke-width="0.5" stroke-linecap="round" stroke-linejoin="round"/>
<path d="M52.4307 15.8621C52.7237 14.8234 53.1262 13.4564 52.7055 12.4636C52.5093 12.0011 52.1742 11.6178 51.8143 11.2791C50.1136 9.6783 33.8069 3.81448 31.1555 3.07787C30.3156 2.8445 29.1791 2.49247 27.9156 4.62607C26.1111 7.67355 20.076 28.3654 18.2926 36.2665C18.1624 36.8434 18.0356 37.4626 18.24 38.0173C18.4337 38.5436 18.892 38.9118 19.3575 39.1975C20.1005 39.6533 20.9126 39.9709 21.725 40.2693C25.0128 41.4776 36.2629 45.8315 39.6885 46.4916C40.3198 46.6133 40.9871 46.7227 41.5884 46.4923C42.5375 46.1286 43.0223 45.0559 43.4064 44.0792C45.747 38.1255 52.5132 15.734 52.4307 15.8621Z" fill="white" stroke="#010101" stroke-width="0.5" stroke-linecap="round" stroke-linejoin="round"/>
<path d="M57.6929 0.301758C57.0161 1.93982 56.3393 3.57764 55.6625 5.21571" stroke="#010101" stroke-width="0.5" stroke-linecap="round" stroke-linejoin="round"/>
<path d="M66.7046 8.6835C64.5691 9.32949 62.4952 10.1865 60.5208 11.2382" stroke="#010101" stroke-width="0.5" stroke-linecap="round" stroke-linejoin="round"/>
<path d="M65.2217 19.9437C63.1906 19.2649 61.1595 18.5864 59.1286 17.9076C59.2666 17.9992 59.4048 18.0908 59.5428 18.1827" stroke="#010101" stroke-width="0.5" stroke-linecap="round" stroke-linejoin="round"/>
<path d="M47.6649 4.51262C48.1208 4.73358 48.36 5.25022 48.2281 5.74701C47.9064 6.95781 47.443 8.48763 47.1261 9.45438C47.067 9.63512 47.0006 9.82479 46.8575 9.94719C46.6107 10.1585 46.2432 10.0924 45.9305 10.0125C42.4117 9.11425 38.9548 7.96527 35.5927 6.57671C35.427 6.50819 35.2498 6.429 35.161 6.27085C35.0778 6.12239 35.0924 5.93917 35.1133 5.7696C35.2783 4.43467 35.6886 3.13151 36.3165 1.94827C36.4788 1.64215 36.671 1.32884 36.9743 1.1692C37.3712 0.960411 37.8504 1.06617 38.2816 1.1846C41.3879 2.03864 44.5407 2.99794 47.6652 4.51237L47.6649 4.51262Z" fill="#045571" stroke="#010101" stroke-width="0.5" stroke-linecap="round" stroke-linejoin="round"/>
<path d="M40.71 15.562C37.0992 14.019 33.4884 12.4763 29.8777 10.9333C29.8239 10.9102 29.7601 10.8702 29.7687 10.8114C29.7772 10.7526 29.8954 10.798 29.8473 10.8315" stroke="#010101" stroke-width="0.5" stroke-linecap="round" stroke-linejoin="round"/>
<path d="M37.9492 24.5664C34.1187 23.2789 30.3356 21.8442 26.611 20.2659" stroke="#010101" stroke-width="0.5" stroke-linecap="round" stroke-linejoin="round"/>
<path d="M27.5454 22.8652C27.0779 23.1368 26.6189 23.4231 26.1692 23.7242L23.6879 22.007C25.2145 21.2639 26.0375 20.5144 27.4858 19.5695C27.4707 20.4302 27.5067 21.7676 27.5454 22.8652Z" fill="white" stroke="#010101" stroke-width="0.5" stroke-linecap="round" stroke-linejoin="round"/>
<path d="M16.7844 10.0271C16.3288 9.18822 15.8835 8.35255 15.4678 7.52681C16.1059 6.99776 18.0823 5.55954 18.8946 5.21594C19.4424 6.00767 19.9817 6.81851 20.5166 7.6368C19.9372 8.00721 19.202 8.47941 18.466 8.95187L16.7844 10.0271Z" fill="#010101" stroke="#010101" stroke-width="0.5" stroke-linecap="round" stroke-linejoin="round"/>
<path d="M20.5181 7.63922C23.0306 11.4824 25.3932 15.5766 27.4858 19.5699C26.3788 20.2306 23.6879 22.0074 23.6879 22.0074C21.521 18.171 18.9682 14.0475 16.7857 10.0298C17.2924 9.70505 17.8784 9.32893 18.4659 8.95181L20.5181 7.63922Z" fill="#045571" stroke="#010101" stroke-width="0.5" stroke-linecap="round" stroke-linejoin="round"/>
<path d="M23.6879 22.0073C23.6879 22.0073 26.3788 20.2304 27.4858 19.5698C26.0376 20.5147 25.2145 21.2642 23.6879 22.0073Z" fill="#045571" stroke="#010101" stroke-width="0.5" stroke-linecap="round" stroke-linejoin="round"/>
<path d="M18.4658 8.95166C17.8786 9.32878 17.2923 9.70515 16.7857 10.0296C16.7852 10.0286 16.7847 10.0279 16.7842 10.0269L18.4658 8.95166Z" fill="#045571" stroke="#010101" stroke-width="0.5" stroke-linecap="round" stroke-linejoin="round"/>
<path d="M20.5164 7.63654C20.5164 7.63654 20.5176 7.63827 20.5181 7.63927L18.4658 8.95161C19.2017 8.47915 19.9369 8.00695 20.5164 7.63654Z" fill="#045571" stroke="#010101" stroke-width="0.5" stroke-linecap="round" stroke-linejoin="round"/>
<path d="M27.6206 24.7292L26.169 23.7245C26.6184 23.4231 27.0777 23.1369 27.5452 22.8655C27.5817 23.9048 27.6206 24.7292 27.6206 24.7292Z" fill="#010101" stroke="#010101" stroke-width="0.5" stroke-linecap="round" stroke-linejoin="round"/>
<path d="M33.832 33.7523C30.3539 32.3006 26.8191 30.9903 23.239 29.8252" stroke="#010101" stroke-width="0.5" stroke-linecap="round" stroke-linejoin="round"/>
<path d="M38.9599 33.4216C38.9881 33.3481 39.0709 33.3138 39.1412 33.3466C39.6954 33.605 42.6887 34.8084 42.7532 34.9717C42.8055 35.1046 42.0786 37.2362 41.3458 38.6816C41.3149 38.7427 41.2487 38.7759 41.1833 38.7601C39.9158 38.4527 37.7723 37.4835 37.4847 37.3521C37.4659 37.3437 37.4581 37.3221 37.4657 37.3027L38.9599 33.4213V33.4216Z" fill="#E3E3FF" stroke="#010101" stroke-width="0.5" stroke-linecap="round" stroke-linejoin="round"/>
<path d="M41.272 35.8295L39.2803 36.9251C39.2803 36.9251 38.2324 34.0621 37.4524 32.4841" stroke="#010101" stroke-width="0.5" stroke-linecap="round" stroke-linejoin="round"/>
<path d="M42.7558 24.4463C42.784 24.3728 42.8668 24.3385 42.9371 24.3713C43.4912 24.6297 46.4846 25.8331 46.5491 25.9964C46.6014 26.1292 45.8745 28.2609 45.1417 29.7063C45.1108 29.7673 45.0446 29.8006 44.9792 29.7847C43.7117 29.4774 41.5682 28.5081 41.2806 28.3768C41.2618 28.3684 41.254 28.3468 41.2616 28.3274L42.7558 24.4463Z" fill="#E3E3FF" stroke="#010101" stroke-width="0.5" stroke-linecap="round" stroke-linejoin="round"/>
<path d="M45.0674 26.8544L43.0757 27.95C43.0757 27.95 42.0278 25.087 41.2478 23.5091" stroke="#010101" stroke-width="0.5" stroke-linecap="round" stroke-linejoin="round"/>
<path d="M45.9038 15.4711C45.932 15.3976 46.0148 15.3634 46.0851 15.3961C46.6392 15.6546 49.6326 16.8579 49.697 17.0213C49.7494 17.1541 49.0225 19.2857 48.2897 20.7311C48.2588 20.7922 48.1926 20.8255 48.1271 20.8096C46.8597 20.5022 44.7162 19.533 44.4285 19.4017C44.4098 19.3932 44.402 19.3716 44.4095 19.3523L45.9038 15.4709V15.4711Z" fill="#E3E3FF" stroke="#010101" stroke-width="0.5" stroke-linecap="round" stroke-linejoin="round"/>
<path d="M48.2158 17.8791L46.2241 18.9747C46.2241 18.9747 45.1762 16.1117 44.3963 14.5337" stroke="#010101" stroke-width="0.5" stroke-linecap="round" stroke-linejoin="round"/>
</g>
</g>
<defs>
<clipPath id="clip0_167_464">
<rect width="67" height="50" fill="white" transform="matrix(-1 0 0 1 67 0)"/>
</clipPath>
</defs>
</svg>
