<svg width="78" height="50" viewBox="0 0 78 50" fill="none" xmlns="http://www.w3.org/2000/svg">
<g clip-path="url(#clip0_167_589)">
<mask id="mask0_167_589" style="mask-type:luminance" maskUnits="userSpaceOnUse" x="0" y="0" width="78" height="50">
<path d="M77.8503 0H0V49.7497H77.8503V0Z" fill="white"/>
</mask>
<g mask="url(#mask0_167_589)">
<path d="M17.6844 46.1739C17.5369 40.9989 19.2608 35.9948 23.8882 33.7415C26.6997 32.3723 28.0824 31.4621 28.059 29.1615C28.0268 26.0033 25.7234 24.7698 24.1268 23.3824C21.3657 20.983 18.8825 17.8107 18.2904 14.1863C18.0935 12.981 18.0333 11.0335 17.9239 9.7478H42.7317C42.6226 11.0335 42.5621 12.981 42.3652 14.1863C41.7731 17.8107 39.2899 20.9832 36.5288 23.3824C34.9323 24.7698 32.6288 26.0033 32.5966 29.1615C32.5732 31.4621 33.9559 32.3723 36.7674 33.7415C41.3945 35.9948 43.1187 40.9989 42.9712 46.1739" fill="white"/>
<path d="M17.6844 46.1739C17.5369 40.9989 19.2608 35.9948 23.8882 33.7415C26.6997 32.3723 28.0824 31.4621 28.059 29.1615C28.0268 26.0033 25.7234 24.7698 24.1268 23.3824C21.3657 20.983 18.8825 17.8107 18.2904 14.1863C18.0935 12.981 18.0333 11.0335 17.9239 9.7478H42.7317C42.6226 11.0335 42.5621 12.981 42.3652 14.1863C41.7731 17.8107 39.2899 20.9832 36.5288 23.3824C34.9323 24.7698 32.6288 26.0033 32.5966 29.1615C32.5732 31.4621 33.9559 32.3723 36.7674 33.7415C41.3945 35.9948 43.1187 40.9989 42.9712 46.1739" stroke="#010101" stroke-width="0.5" stroke-linecap="round" stroke-linejoin="round"/>
<path d="M42.9697 46.1728H17.6847C17.5352 40.9978 19.2607 35.9956 23.8865 33.7421C26.6986 32.3712 28.0816 31.4616 28.057 29.1613C28.0521 28.6091 27.9763 28.116 27.8465 27.6723C27.2418 25.5668 25.4429 24.5289 24.1262 23.3824C21.8132 21.3731 19.6938 18.819 18.7172 15.9096C18.5312 15.3476 18.3842 14.7731 18.289 14.1863C18.0932 12.9808 18.0321 11.033 17.9219 9.74866H42.7322C42.622 11.0333 42.5609 12.9808 42.3651 14.1863C42.2697 14.7731 42.1227 15.3476 41.9345 15.9096V15.9171C40.9578 18.8215 38.8409 21.3731 36.5279 23.3824C35.2137 24.5239 33.4221 25.5618 32.8101 27.655C32.6778 28.1036 32.602 28.6017 32.5971 29.1613C32.5726 31.4616 33.9556 32.3712 36.7677 33.7421C41.3934 35.9954 43.1189 40.9978 42.9695 46.1728H42.9697Z" fill="white" stroke="#010101" stroke-width="0.5" stroke-linecap="round" stroke-linejoin="round"/>
<path d="M31.9489 27.3813C32.7635 26.7549 35.6634 24.1332 36.528 23.3824C38.841 21.3731 40.9579 18.8214 41.9345 15.917V15.9096H18.7178C19.6944 18.8189 21.8138 21.3731 24.1268 23.3824C24.9766 24.1222 27.8847 26.7417 29.3337 27.6684C29.8532 28.0005 30.1696 28.5755 30.1696 29.1953V38.486C30.1696 38.9555 29.9844 39.4055 29.655 39.7374L21.9392 47.5096H38.9465L31.2673 39.7742C30.9379 39.4423 30.7527 38.992 30.7527 38.5228V28.8918C30.7527 28.2121 31.5507 27.6874 31.9489 27.3813Z" fill="#045571" stroke="#010101" stroke-width="0.5" stroke-linecap="round" stroke-linejoin="round"/>
<path d="M41.8889 6.66675C36.3421 6.66675 23.3884 6.80768 17.6475 6.80768C16.9452 6.80768 16.1281 6.97362 15.7905 7.59422C15.4346 8.24889 15.8835 9.1096 16.5389 9.45741C17.1942 9.80521 17.8518 9.77307 18.5928 9.77307C24.8625 9.77307 34.0365 10.2003 41.575 9.864C42.4229 9.82609 43.4415 9.95054 44.0418 9.34587C45.5685 7.80796 44.1288 6.66675 41.8886 6.66675H41.8889Z" fill="#010101" stroke="#010101" stroke-width="0.5" stroke-linecap="round" stroke-linejoin="round"/>
<path d="M42.1623 46.1739C36.6156 46.1739 23.6619 46.3148 17.9209 46.3148C17.2187 46.3148 16.4016 46.4808 16.0639 47.1014C15.708 47.756 16.1569 48.6167 16.8123 48.9646C17.4677 49.3124 18.1252 49.2802 18.8662 49.2802C25.136 49.2802 34.3099 49.7074 41.8484 49.3711C42.6963 49.3332 43.715 49.4577 44.3152 48.853C45.8419 47.3151 44.4022 46.1739 42.162 46.1739H42.1623Z" fill="#010101" stroke="#010101" stroke-width="0.5" stroke-linecap="round" stroke-linejoin="round"/>
<path d="M40.9805 49.5L44.4275 19.9176H75.2661L71.8191 49.5H40.9805Z" fill="white" stroke="#010101" stroke-width="0.5" stroke-linecap="round" stroke-linejoin="round"/>
<path d="M53.4883 5.46787C56.2606 5.09919 58.6191 2.82638 58.9486 0.206055C58.7135 2.46237 60.913 4.5371 63.1398 5.39534C61.9996 5.45606 60.2751 6.44314 59.6906 7.36787C59.1062 8.29259 58.8883 9.38133 58.7811 10.4528C58.72 7.79699 56.2025 5.40166 53.4883 5.46787Z" fill="white" stroke="#010101" stroke-width="0.5" stroke-linecap="round" stroke-linejoin="round"/>
<path d="M2.65625 25.7149C5.24989 25.3956 6.47743 23.4269 6.78561 21.1572C6.5658 23.1116 7.95425 25.1223 10.0376 25.8657C8.97098 25.9184 8.02652 26.5599 7.4797 27.3607C6.93289 28.1616 6.72916 29.1047 6.6288 30.0327C6.57152 27.7322 5.19561 25.6574 2.65625 25.7149Z" fill="white" stroke="#010101" stroke-width="0.5" stroke-linecap="round" stroke-linejoin="round"/>
<path d="M19.8702 49.2072L15.8456 40.0355C14.9063 37.8951 13.861 35.6281 11.8886 34.3921C10.8244 33.725 9.34268 33.4591 8.37123 34.2569C7.68832 34.8176 7.43823 35.7465 7.28877 36.6209C6.54396 40.9833 7.40468 45.605 9.92277 49.4756C13.2825 49.6272 16.858 49.35 19.8702 49.2072Z" fill="#55D087" stroke="#010101" stroke-width="0.5" stroke-linecap="round" stroke-linejoin="round"/>
<path d="M9.84473 35.2888C10.907 39.9333 12.2393 44.5149 13.8325 49.0028L9.84473 35.2888Z" fill="white"/>
<path d="M9.84473 35.2888C10.907 39.9333 12.2393 44.5149 13.8325 49.0028" stroke="#010101" stroke-width="0.5" stroke-linecap="round" stroke-linejoin="round"/>
<path d="M11.8196 49.5437C10.562 47.0624 9.30148 44.575 7.78403 42.2459C6.69175 40.5693 5.37257 38.9041 3.51503 38.183C2.8583 37.9281 2.09684 37.8088 1.46493 38.1209C0.750117 38.4737 0.375935 39.2943 0.258662 40.0871C0.0036622 41.811 0.699117 43.5267 1.49139 45.0764C2.2403 46.5412 3.08957 47.9539 4.35203 49.4173C7.38284 49.4563 9.5273 49.5143 11.8196 49.5437Z" fill="#55D087" stroke="#010101" stroke-width="0.5" stroke-linecap="round" stroke-linejoin="round"/>
<path d="M2.26855 38.6316C3.86401 42.2753 5.71446 45.8055 7.80219 49.1874L2.26855 38.6316Z" fill="white"/>
<path d="M2.26855 38.6316C3.86401 42.2753 5.71446 45.8055 7.80219 49.1874" stroke="#010101" stroke-width="0.5" stroke-linecap="round" stroke-linejoin="round"/>
<path d="M46.7598 28.8692L47.3715 23.6918H52.7559L52.1442 28.8692H46.7598Z" fill="#E3E3FF" stroke="#010101" stroke-width="0.5" stroke-linecap="round" stroke-linejoin="round"/>
<path d="M47.9092 25.1963C48.4994 25.8768 49.0893 26.5575 49.6795 27.238C51.5185 25.6641 53.3577 24.0905 55.1967 22.5166" stroke="#010101" stroke-width="0.5" stroke-linecap="round" stroke-linejoin="round"/>
<path d="M45.5293 37.4365L46.141 32.2593H51.5255L50.9138 37.4365H45.5293Z" fill="#E3E3FF" stroke="#010101" stroke-width="0.5" stroke-linecap="round" stroke-linejoin="round"/>
<path d="M46.6787 33.7634C47.2689 34.4439 47.8588 35.1247 48.449 35.8052C50.288 34.2313 52.1273 32.6576 53.9663 31.0837" stroke="#010101" stroke-width="0.5" stroke-linecap="round" stroke-linejoin="round"/>
<path d="M44.6729 46.0041L45.2846 40.8267H50.669L50.0573 46.0041H44.6729Z" fill="#E3E3FF" stroke="#010101" stroke-width="0.5" stroke-linecap="round" stroke-linejoin="round"/>
<path d="M45.8223 42.3308C46.4124 43.0113 47.0024 43.6921 47.5925 44.3726C49.4315 42.7987 51.2708 41.225 53.1098 39.6511" stroke="#010101" stroke-width="0.5" stroke-linecap="round" stroke-linejoin="round"/>
<path d="M57.3477 25.1575C62.0808 24.9314 66.8257 24.95 71.557 25.2132C71.4629 25.2 71.3691 25.1871 71.275 25.1739" stroke="#010101" stroke-width="0.5" stroke-linecap="round" stroke-linejoin="round"/>
<path d="M57.1807 27.6308C58.9231 27.6896 62.1339 27.625 63.8764 27.6838" stroke="#010101" stroke-width="0.5" stroke-linecap="round" stroke-linejoin="round"/>
<path d="M56.3643 33.5242C61.0974 33.2981 65.8423 33.3168 70.5736 33.58C70.4795 33.5668 70.3857 33.5539 70.2916 33.5407" stroke="#010101" stroke-width="0.5" stroke-linecap="round" stroke-linejoin="round"/>
<path d="M56.1973 35.9976C57.9397 36.0563 61.1505 35.9918 62.893 36.0506" stroke="#010101" stroke-width="0.5" stroke-linecap="round" stroke-linejoin="round"/>
<path d="M55.1328 41.8464C59.866 41.6203 64.6109 41.639 69.3422 41.9022C69.2481 41.889 69.1543 41.8761 69.0602 41.8629" stroke="#010101" stroke-width="0.5" stroke-linecap="round" stroke-linejoin="round"/>
<path d="M54.9658 44.3198C56.7083 44.3786 59.9191 44.3141 61.6615 44.3728" stroke="#010101" stroke-width="0.5" stroke-linecap="round" stroke-linejoin="round"/>
<path d="M67.1206 41.5316C66.9059 42.7514 66.5151 44.0547 66.2939 45.2541C67.4492 44.8629 68.4111 44.2412 69.5664 43.8497C68.5055 42.9525 67.8403 42.1712 67.1206 41.5316Z" fill="white" stroke="#010101" stroke-width="0.5" stroke-linecap="round" stroke-linejoin="round"/>
<path d="M67.1201 41.5316C69.6679 38.386 72.5264 35.1849 75.4544 32.3657C76.0026 32.7327 77.2517 34.0618 77.6455 34.5382C75.2024 37.6577 72.144 40.8651 69.5659 43.8497C68.5495 43.0896 68.0507 42.4267 67.1201 41.5316Z" fill="#045571" stroke="#010101" stroke-width="0.5" stroke-linecap="round" stroke-linejoin="round"/>
<path d="M74.1221 33.8431C74.7142 34.3909 75.8648 35.4566 76.4569 36.0044L74.1221 33.8431Z" fill="white"/>
<path d="M74.1221 33.8431C74.7142 34.3909 75.8648 35.4566 76.4569 36.0044" stroke="#010101" stroke-width="0.5" stroke-linecap="round" stroke-linejoin="round"/>
</g>
</g>
<defs>
<clipPath id="clip0_167_589">
<rect width="78" height="50" fill="white"/>
</clipPath>
</defs>
</svg>
