<svg width="57" height="50" viewBox="0 0 57 50" fill="none" xmlns="http://www.w3.org/2000/svg">
<g clip-path="url(#clip0_167_438)">
<mask id="mask0_167_438" style="mask-type:luminance" maskUnits="userSpaceOnUse" x="0" y="0" width="57" height="50">
<path d="M56.7704 0H0V49.8995H56.7704V0Z" fill="white"/>
</mask>
<g mask="url(#mask0_167_438)">
<path d="M0.175781 10.9829C2.01479 10.7232 3.57936 9.12229 3.79774 7.27652C3.64176 8.86596 4.62647 10.5009 6.10355 11.1056C5.3473 11.1484 4.67761 11.6702 4.2901 12.3214C3.90236 12.9725 3.75787 13.7394 3.68679 14.4944C3.64621 12.6235 1.97609 10.9364 0.175781 10.9829Z" stroke="#010101" stroke-width="0.5" stroke-linecap="round" stroke-linejoin="round"/>
<path d="M51.1895 26.7122C52.8664 26.4754 54.2928 25.0157 54.4919 23.3326C54.3498 24.7819 55.2475 26.2728 56.5944 26.824C55.9047 26.8629 55.2942 27.3387 54.9407 27.9324C54.5872 28.5263 54.4553 29.2256 54.3906 29.9136C54.3535 28.2078 52.831 26.6697 51.1895 26.7122Z" stroke="#010101" stroke-width="0.5" stroke-linecap="round" stroke-linejoin="round"/>
<path d="M39.9928 31.223C40.2581 31.5641 40.438 31.9711 40.5117 32.3972C34.6367 34.9838 28.7617 37.5704 22.8865 40.1568C18.0368 31.3887 13.5589 22.7359 9.38379 13.9392C11.4834 12.4988 13.6048 11.3772 15.7481 10.4714C18.2164 18.8984 21.1209 27.1977 24.7011 35.4247C29.7619 33.6042 34.8687 31.9122 39.9928 31.223Z" fill="#045571" stroke="#010101" stroke-width="0.5" stroke-linecap="round" stroke-linejoin="round"/>
<path d="M46.2203 28.9817C42.8789 20.3793 39.525 8.95634 36.6827 0.176056C29.0232 2.27606 21.9826 4.81361 15.1074 7.73991C17.823 16.9592 20.1021 26.5742 24.1725 35.7221C31.0829 34.0289 39.2273 31.7192 46.22 28.9817H46.2203Z" fill="#E3E3FF" stroke="#010101" stroke-width="0.5" stroke-linecap="round" stroke-linejoin="round"/>
<path d="M20.5051 11.2467C20.6754 11.8345 20.8459 12.4225 21.0162 13.0103C25.8699 12.1789 30.5277 10.4843 35.1548 8.79812C34.9948 8.19718 34.8349 7.59624 34.6749 6.9953C30.0802 8.4453 25.4852 9.8953 20.5049 11.2469L20.5051 11.2467Z" fill="white" stroke="#010101" stroke-width="0.5" stroke-linecap="round" stroke-linejoin="round"/>
<path d="M22.3125 16.2275C26.8162 14.9486 31.295 13.5822 35.7455 12.1293" stroke="#010101" stroke-width="0.5" stroke-linecap="round" stroke-linejoin="round"/>
<path d="M23.4766 18.7944C27.976 17.3706 32.4753 15.9469 36.9748 14.5232" stroke="#010101" stroke-width="0.5" stroke-linecap="round" stroke-linejoin="round"/>
<path d="M24.6763 21.6012C29.0995 20.1068 33.5352 18.6488 37.9824 17.2275" stroke="#010101" stroke-width="0.5" stroke-linecap="round" stroke-linejoin="round"/>
<path d="M25.6655 24.2721C30.2619 23.0939 34.8214 21.7723 39.3354 20.3098" stroke="#010101" stroke-width="0.5" stroke-linecap="round" stroke-linejoin="round"/>
<path d="M26.9185 27.1387C28.114 26.6336 29.3293 26.1751 30.5606 25.7648" stroke="#010101" stroke-width="0.5" stroke-linecap="round" stroke-linejoin="round"/>
<path d="M33.5034 28.9033C33.3779 27.9777 33.3969 26.9753 33.9017 26.1897C34.4065 25.404 35.5305 24.9648 36.3168 25.4678C36.7714 25.7587 37.0163 26.2782 37.2382 26.7704C37.5436 26.558 37.6559 26.1685 37.7962 25.8239C37.9365 25.4793 38.1847 25.1131 38.5557 25.0894C38.829 25.0721 39.0723 25.2488 39.3343 25.3282C39.8262 25.4772 40.3486 25.2765 40.8231 25.0791" stroke="#010101" stroke-width="0.5" stroke-linecap="round" stroke-linejoin="round"/>
<path d="M10.0674 41.1763C12.1942 40.3406 14.402 39.7115 16.6494 39.3005" stroke="#010101" stroke-width="0.5" stroke-linecap="round" stroke-linejoin="round"/>
<path d="M19.6906 42.2838C18.9012 43.7336 18.0765 45.1641 17.2173 46.5737" stroke="#010101" stroke-width="0.5" stroke-linecap="round" stroke-linejoin="round"/>
<path d="M24.1255 44.4049C24.2327 46.1754 24.2712 47.95 24.2407 49.7232" stroke="#010101" stroke-width="0.5" stroke-linecap="round" stroke-linejoin="round"/>
</g>
</g>
<defs>
<clipPath id="clip0_167_438">
<rect width="57" height="50" fill="white"/>
</clipPath>
</defs>
</svg>
