<svg width="101" height="50" viewBox="0 0 101 50" fill="none" xmlns="http://www.w3.org/2000/svg">
<g clip-path="url(#clip0_167_505)">
<mask id="mask0_167_505" style="mask-type:luminance" maskUnits="userSpaceOnUse" x="0" y="0" width="101" height="50">
<path d="M100.716 0H0V49.8974H100.716V0Z" fill="white"/>
</mask>
<g mask="url(#mask0_167_505)">
<path d="M29.8542 48.7924C27.591 44.8727 27.7797 44.4212 25.5165 40.5018C23.9323 37.7577 22.1753 34.8518 19.0351 33.2788C17.3411 32.4303 15.0199 32.1009 13.554 33.1347C10.1342 35.5471 13.0982 41.925 16.5443 48.7841C21.781 48.9506 23.6496 48.7924 29.8542 48.7924Z" fill="#55D087" stroke="#010101" stroke-width="0.5" stroke-linecap="round" stroke-linejoin="round"/>
<path d="M15.9067 34.4494C17.8263 40.4123 19.3884 43.0356 22.1255 48.7923" stroke="#010101" stroke-width="0.5" stroke-linecap="round" stroke-linejoin="round"/>
<path d="M17.8302 48.7923C13.951 42.9156 11.497 39.1267 6.20935 37.4832C5.17285 37.1612 3.98116 37.0144 3.01592 37.4209C1.92406 37.8806 1.07984 38.9326 1.25181 39.9594C1.9114 43.8973 4.25648 46.0697 5.71878 48.912C10.4372 48.9364 14.2617 48.7738 17.8302 48.7923Z" fill="#55D087" stroke="#010101" stroke-width="0.5" stroke-linecap="round" stroke-linejoin="round"/>
<path d="M4.29492 38.0709C6.98659 42.7423 7.63087 44.2567 11.0737 48.5873" stroke="#010101" stroke-width="0.5" stroke-linecap="round" stroke-linejoin="round"/>
<path d="M86.3775 37.7582C85.3159 37.9047 84.3583 38.5159 83.5818 39.2538C82.2332 40.5356 81.4332 42.4491 81.7241 44.2859C81.851 45.0864 82.1749 45.8494 82.6175 46.5288C83.6631 48.1341 85.3987 49.2738 87.2882 49.5976C89.4755 49.9726 90.4881 48.9138 90.969 48.4956C92.2428 47.3873 93.37 45.707 93.3202 43.8782C93.2581 41.5811 91.815 37.0073 86.3772 37.7582H86.3775Z" fill="#010101" stroke="#010101" stroke-width="0.5" stroke-linecap="round" stroke-linejoin="round"/>
<path d="M86.9737 40.5609C86.4287 40.6362 85.9372 40.9497 85.5385 41.3285C84.8459 41.9865 84.4355 42.9691 84.5848 43.9118C84.6498 44.3229 84.8162 44.7144 85.0435 45.0632C85.5803 45.8873 86.4714 46.4723 87.4416 46.6388C88.5647 46.8315 89.0844 46.2876 89.3312 46.0729C89.9852 45.5041 90.5638 44.6412 90.5385 43.7023C90.5067 42.5229 89.7658 40.175 86.974 40.5603L86.9737 40.5609Z" fill="white" stroke="#010101" stroke-width="0.5" stroke-linecap="round" stroke-linejoin="round"/>
<path d="M69.2476 37.7582C68.186 37.9047 67.2285 38.5159 66.452 39.2538C65.1033 40.5356 64.3033 42.4491 64.5942 44.2859C64.7211 45.0864 65.045 45.8494 65.4876 46.5288C66.5332 48.1341 68.2688 49.2738 70.1583 49.5976C72.3456 49.9726 73.3582 48.9138 73.8391 48.4956C75.1129 47.3873 76.2401 45.707 76.1904 43.8782C76.1282 41.5811 74.6854 37.0073 69.2476 37.7582Z" fill="#010101" stroke="#010101" stroke-width="0.5" stroke-linecap="round" stroke-linejoin="round"/>
<path d="M69.8438 40.5609C69.2988 40.6362 68.8073 40.9497 68.4086 41.3285C67.7161 41.9865 67.3056 42.9691 67.4549 43.9118C67.5199 44.3229 67.6863 44.7144 67.9136 45.0632C68.4504 45.8873 69.3415 46.4723 70.3117 46.6388C71.4348 46.8315 71.9545 46.2876 72.2013 46.0729C72.8553 45.5041 73.4339 44.6412 73.4086 43.7023C73.3768 42.5229 72.6359 40.175 69.8441 40.5603L69.8438 40.5609Z" fill="#010101" stroke="#010101" stroke-width="0.5" stroke-linecap="round" stroke-linejoin="round"/>
<path d="M29.4263 37.0885C28.3647 37.235 27.4072 37.8462 26.6307 38.5841C25.282 39.8659 24.482 41.7794 24.7729 43.6162C24.8998 44.4168 25.2237 45.1797 25.6663 45.8591C26.7119 47.4644 28.4475 48.6041 30.337 48.9279C32.5243 49.3029 33.537 48.2441 34.0178 47.8259C35.2916 46.7177 36.4188 45.0374 36.3691 43.2085C36.3069 40.9115 34.8641 36.3376 29.4263 37.0885Z" fill="#010101" stroke="#010101" stroke-width="0.5" stroke-linecap="round" stroke-linejoin="round"/>
<path d="M30.0225 39.8912C29.4775 39.9665 28.986 40.28 28.5873 40.6588C27.8948 41.3168 27.4843 42.2994 27.6336 43.2421C27.6987 43.6532 27.865 44.0447 28.0924 44.3935C28.6292 45.2177 29.5202 45.8027 30.4904 45.9691C31.6135 46.1618 32.1332 45.618 32.38 45.4033C33.034 44.8344 33.6126 43.9715 33.5873 43.0327C33.5555 41.8533 32.8146 39.5053 30.0228 39.8906L30.0225 39.8912Z" fill="#010101" stroke="#010101" stroke-width="0.5" stroke-linecap="round" stroke-linejoin="round"/>
<path d="M95.3159 34.7385H79.541V42.6912H95.3159V34.7385Z" fill="#045571" stroke="#010101" stroke-width="0.5" stroke-linecap="round" stroke-linejoin="round"/>
<path d="M86.3775 37.7582C85.3159 37.9047 84.3583 38.5159 83.5818 39.2538C82.2332 40.5356 81.4332 42.4491 81.7241 44.2859C81.851 45.0864 82.1749 45.8494 82.6175 46.5288C83.6631 48.1341 85.3987 49.2738 87.2882 49.5976C89.4755 49.9726 90.4881 48.9138 90.969 48.4956C92.2428 47.3873 93.37 45.707 93.3202 43.8782C93.2581 41.5811 91.815 37.0073 86.3772 37.7582H86.3775Z" fill="#010101" stroke="#010101" stroke-width="0.5" stroke-linecap="round" stroke-linejoin="round"/>
<path d="M86.7531 39.5238C86.017 39.6256 85.353 40.0491 84.8144 40.5609C83.8792 41.4497 83.3244 42.7767 83.5261 44.0503C83.6142 44.6056 83.8389 45.1344 84.1457 45.6059C84.8706 46.7191 86.0741 47.5094 87.3848 47.7341C88.9015 47.9941 89.6038 47.26 89.9371 46.97C90.8205 46.2014 91.602 45.0362 91.5679 43.7679C91.5249 42.175 90.524 39.0032 86.7531 39.5241V39.5238Z" fill="white" stroke="#010101" stroke-width="0.5" stroke-linecap="round" stroke-linejoin="round"/>
<path d="M19.3089 42.9991C35.3476 42.9991 47.8092 43.7541 63.021 42.9827C63.021 39.3212 63.5457 24.6527 63.5457 9.86914H19.3089C19.4473 13.8544 19.0943 36.8247 19.3089 42.9991Z" fill="#045571" stroke="#010101" stroke-width="0.5" stroke-linecap="round" stroke-linejoin="round"/>
<path d="M21.4194 40.9591C24.727 40.9591 27.2971 41.6203 30.4343 40.9447C30.4343 37.7388 30.5426 24.895 30.5426 11.9506H21.4197C21.4482 15.4403 21.3752 35.5529 21.4194 40.9591Z" fill="#010101" stroke="#010101" stroke-width="0.5" stroke-linecap="round" stroke-linejoin="round"/>
<path d="M76.0784 16.5668C78.5192 16.4659 80.9623 16.4203 83.48 16.5615C84.5733 16.6226 85.5274 17.3165 85.9499 18.3256C87.3121 21.5788 88.7717 24.7726 90.2461 27.8232C93.024 28.0632 94.211 28.3838 96.1809 28.6926C97.5522 28.9076 98.5723 30.0673 98.6126 31.4532C98.6865 33.9882 98.8411 38.25 99.137 42.6876L94.726 42.6918C93.6804 39.3797 92.1144 36.7947 87.9169 36.6153C83.0256 36.4282 81.1493 39.8303 80.3169 42.9991C79.2919 43.0459 79.0383 42.8532 75.8496 42.9991" fill="#E3E3FF"/>
<path d="M76.0784 16.5668C78.5192 16.4659 80.9623 16.4203 83.48 16.5615C84.5733 16.6226 85.5274 17.3165 85.9499 18.3256C87.3121 21.5788 88.7717 24.7726 90.2461 27.8232C93.024 28.0632 94.211 28.3838 96.1809 28.6926C97.5522 28.9076 98.5723 30.0673 98.6126 31.4532C98.6865 33.9882 98.8411 38.25 99.137 42.6876L94.726 42.6918C93.6804 39.3797 92.1144 36.7947 87.9169 36.6153C83.0256 36.4282 81.1493 39.8303 80.3169 42.9991C79.2919 43.0459 79.0383 42.8532 75.8496 42.9991" stroke="#010101" stroke-width="0.5" stroke-linecap="round" stroke-linejoin="round"/>
<path d="M79.0239 28.2882C82.6678 28.2882 83.0574 28 87.9169 28C86.2302 24.9768 85.3021 22.8165 83.4879 18.8176C80.9705 18.6368 80.9087 18.7579 79.0239 18.8665C78.8169 21.8444 78.9314 25.0288 79.0239 28.2882Z" fill="white" stroke="#010101" stroke-width="0.5" stroke-linecap="round" stroke-linejoin="round"/>
<path d="M32.522 42.9991C48.5607 42.9991 61.0222 43.7541 76.2341 42.9827C76.2341 39.3212 76.7588 24.6527 76.7588 9.86914H32.7145C32.8529 13.8544 32.522 34.4627 32.522 42.9991Z" fill="#045571" stroke="#010101" stroke-width="0.5" stroke-linecap="round" stroke-linejoin="round"/>
<path d="M78.3003 30.9568C78.4231 30.7115 78.6698 30.5468 78.931 30.4624C79.1922 30.378 79.4702 30.3638 79.7443 30.3506C80.1628 30.3303 80.5815 30.31 80.9999 30.2897C81.2676 30.2768 81.542 30.2644 81.7979 30.3438C82.0538 30.4232 82.2923 30.6141 82.3512 30.8756" stroke="#010101" stroke-width="0.5" stroke-linecap="round" stroke-linejoin="round"/>
<path d="M100.229 40.0194C99.9329 39.5435 98.236 39.8741 97.2489 39.8588C96.9606 39.8544 96.6494 39.857 96.4174 40.0279C96.1373 40.2341 96.0631 40.6182 96.0496 40.9656C96.036 41.3073 96.0599 41.6506 96.1203 41.9873C96.1615 42.2161 96.2342 42.4638 96.4297 42.5903C96.5781 42.6861 96.7654 42.6909 96.9421 42.6914C97.8685 42.6944 98.7948 42.6682 99.7197 42.6126C99.9132 42.6008 100.125 42.58 100.261 42.4423C100.369 42.3332 100.405 42.1732 100.428 42.0214C100.535 41.2935 100.544 40.5261 100.229 40.0194Z" fill="white" stroke="#010101" stroke-width="0.5" stroke-linecap="round" stroke-linejoin="round"/>
<path d="M46.5567 37.0885C45.4951 37.235 44.5375 37.8462 43.761 38.5841C42.4124 39.8659 41.6124 41.7794 41.9033 43.6162C42.0302 44.4168 42.3541 45.1797 42.7967 45.8591C43.8423 47.4644 45.5779 48.6041 47.4674 48.9279C49.6547 49.3029 50.6673 48.2441 51.1482 47.8259C52.422 46.7177 53.5492 45.0374 53.4994 43.2085C53.4373 40.9115 51.9942 36.3376 46.5564 37.0885H46.5567Z" fill="#010101" stroke="#010101" stroke-width="0.5" stroke-linecap="round" stroke-linejoin="round"/>
<path d="M46.9514 38.9447C46.2317 39.0441 45.583 39.4582 45.0568 39.9582C44.1428 40.827 43.6004 42.1238 43.7977 43.3685C43.8837 43.9111 44.1034 44.4282 44.4031 44.8888C45.1116 45.9767 46.288 46.7491 47.5689 46.9688C49.0515 47.2229 49.7376 46.5053 50.0632 46.222C50.9266 45.4708 51.6904 44.332 51.6569 43.0926C51.6148 41.5358 50.6369 38.4356 46.9514 38.9447Z" fill="white" stroke="#010101" stroke-width="0.5" stroke-linecap="round" stroke-linejoin="round"/>
<path d="M9.34082 5.22588C11.8293 4.87529 13.9459 2.71323 14.2415 0.220581C14.0304 2.36705 15.3628 4.57529 17.3613 5.39176C16.3381 5.4497 15.432 6.15411 14.9073 7.03352C14.3826 7.91293 14.1871 8.94882 14.0908 9.96793C14.036 7.44146 11.7769 5.16293 9.34082 5.22588Z" stroke="#010101" stroke-width="0.5" stroke-linecap="round" stroke-linejoin="round"/>
<path d="M0.220703 26.2158C1.55108 26.0282 2.68298 24.8723 2.84081 23.5397C2.72804 24.6873 3.44034 25.8679 4.50893 26.3044C3.96183 26.3353 3.47744 26.712 3.19682 27.1823C2.9162 27.6526 2.81166 28.2064 2.76043 28.7514C2.73098 27.4006 1.5231 26.182 0.220703 26.2158Z" stroke="#010101" stroke-width="0.5" stroke-linecap="round" stroke-linejoin="round"/>
<path d="M39.4377 23.8591C39.4032 23.9238 34.0317 23.5906 26.5344 23.8809C26.3869 27.2809 26.5886 31.3147 26.5886 34.2212C29.4328 34.2212 34.858 34.2438 39.3956 34.2438C39.1768 30.5506 39.3994 27.613 39.4377 23.8591Z" fill="#E3E3FF" stroke="#010101" stroke-width="0.5" stroke-linecap="round" stroke-linejoin="round"/>
<path d="M26.6851 34.1038C31.983 29.2712 38.7412 24.4915 39.4379 23.8591" stroke="#010101" stroke-width="0.5" stroke-linecap="round" stroke-linejoin="round"/>
<path d="M26.6851 24.0991C29.897 26.7309 38.9573 33.8459 39.3878 34.1038" stroke="#010101" stroke-width="0.5" stroke-linecap="round" stroke-linejoin="round"/>
<path d="M35.4948 34.3644C35.4604 34.4556 30.0888 33.9847 22.5916 34.3953C22.444 39.1988 22.6457 44.8982 22.6457 49.0044C25.4899 49.0044 30.9151 49.0365 35.4527 49.0365C35.2339 43.8185 35.4565 39.6676 35.4948 34.3644Z" fill="#E3E3FF" stroke="#010101" stroke-width="0.5" stroke-linecap="round" stroke-linejoin="round"/>
<path d="M22.7427 48.8383C28.0406 42.0106 34.7988 35.2574 35.4955 34.3641" stroke="#010101" stroke-width="0.5" stroke-linecap="round" stroke-linejoin="round"/>
<path d="M22.7427 34.7032C25.9547 38.4215 35.0149 48.4738 35.4454 48.8385" stroke="#010101" stroke-width="0.5" stroke-linecap="round" stroke-linejoin="round"/>
<path d="M51.0385 27.3909C50.9961 27.5256 43.485 27.4362 35.0732 27.4362C34.8906 34.5226 35.14 42.9312 35.14 48.9888C38.6591 48.9888 45.3716 49.0362 50.9861 49.0362C50.7155 41.3379 50.9911 35.215 51.0385 27.3909Z" fill="#E3E3FF" stroke="#010101" stroke-width="0.5" stroke-linecap="round" stroke-linejoin="round"/>
<path d="M40.2461 27.4453C40.2461 35.1797 40.2402 42.5162 40.2402 49.0038L40.2461 27.4453Z" fill="#E3E3FF"/>
<path d="M40.2461 27.4453C40.2461 35.1797 40.2402 42.5162 40.2402 49.0038" stroke="#010101" stroke-width="0.5" stroke-linecap="round" stroke-linejoin="round"/>
<path d="M45.2451 29.5109C46.6827 29.5723 48.1226 29.5856 49.561 29.5506L45.2451 29.5109Z" fill="#E3E3FF"/>
<path d="M45.2451 29.5109C46.6827 29.5723 48.1226 29.5856 49.561 29.5506" stroke="#010101" stroke-width="0.5" stroke-linecap="round" stroke-linejoin="round"/>
<path d="M45.2446 31.1403C45.951 31.1344 46.6577 31.1421 47.3639 31.1626L45.2446 31.1403Z" fill="#E3E3FF"/>
<path d="M45.2446 31.1403C45.951 31.1344 46.6577 31.1421 47.3639 31.1626" stroke="#010101" stroke-width="0.5" stroke-linecap="round" stroke-linejoin="round"/>
<path d="M49.9239 46.2985C48.8338 46.3259 46.9071 46.2953 45.7346 46.4182C45.7093 46.7494 45.7673 47.1641 45.7417 47.4953C46.9433 47.5323 48.7295 47.4859 49.9312 47.5226C49.9592 47.1588 49.9504 46.7526 49.9236 46.2982L49.9239 46.2985Z" fill="#E3E3FF" stroke="#010101" stroke-width="0.5" stroke-linecap="round" stroke-linejoin="round"/>
</g>
</g>
<defs>
<clipPath id="clip0_167_505">
<rect width="101" height="50" fill="white"/>
</clipPath>
</defs>
</svg>
