<svg width="47" height="50" viewBox="0 0 47 50" fill="none" xmlns="http://www.w3.org/2000/svg">
<g clip-path="url(#clip0_167_553)">
<mask id="mask0_167_553" style="mask-type:luminance" maskUnits="userSpaceOnUse" x="0" y="0" width="47" height="50">
<path d="M46.9195 0H0V49.8744H46.9195V0Z" fill="white"/>
</mask>
<g mask="url(#mask0_167_553)">
<path d="M40.8342 10.7898C42.3387 10.576 43.6185 9.25759 43.7972 7.73752C43.6696 9.04642 44.9095 10.2832 46.1177 10.7811C45.499 10.8163 44.5171 11.3557 44.1997 11.8921C43.8826 12.4284 43.7643 13.0601 43.7061 13.6815C43.673 12.1407 42.3068 10.7513 40.834 10.7898H40.8342Z" stroke="#010101" stroke-width="0.5" stroke-linecap="round" stroke-linejoin="round"/>
<path d="M0.141113 27.7833C1.06701 27.6517 1.85473 26.8404 1.96471 25.9049C1.88613 26.7104 2.64922 27.4716 3.39295 27.778C3.01225 27.7998 2.40783 28.1316 2.21269 28.4618C2.01754 28.7919 1.94479 29.1805 1.90888 29.5631C1.88839 28.615 1.04746 27.7599 0.141113 27.7833Z" stroke="#010101" stroke-width="0.5" stroke-linecap="round" stroke-linejoin="round"/>
<path d="M23.9707 1.18921C24.3005 2.09054 24.6731 2.97595 25.0867 3.84148" stroke="#010101" stroke-width="0.5" stroke-linecap="round" stroke-linejoin="round"/>
<path d="M30.6362 2.98013C31.1294 2.17823 31.9086 0.943764 32.4016 0.142059" stroke="#010101" stroke-width="0.5" stroke-linecap="round" stroke-linejoin="round"/>
<path d="M12.4956 17.2655C12.0465 16.1362 11.5919 14.8879 11.9746 13.7339C12.1529 13.1966 12.5007 12.7328 12.8819 12.3161C14.6832 10.3475 22.3865 7.41781 25.3805 6.31383C26.9539 5.73372 28.5504 6.19034 29.7119 8.09489C32.0006 11.8481 37.5791 25.9434 40.5217 34.7064C40.7336 35.3371 40.9456 36.0155 40.7676 36.6566C40.5986 37.2652 40.1068 37.725 39.5975 38.0936C38.7847 38.6816 37.8776 39.1222 36.9677 39.5419C33.2861 41.24 31.2817 41.9472 27.3829 43.0477C26.6646 43.2506 25.9028 43.4434 25.182 43.2498C24.044 42.9441 23.3691 41.797 22.8211 40.7468C19.4805 34.3438 12.3864 17.1311 12.4956 17.2655Z" fill="#045571" stroke="#010101" stroke-width="0.5" stroke-linecap="round" stroke-linejoin="round"/>
<path d="M14.0346 17.8996C13.6344 16.8932 13.0901 15.5706 13.4313 14.5426C13.5902 14.0638 13.9 13.6506 14.2397 13.2794C15.8447 11.5252 22.5115 8.99129 25.1792 8.00758C26.0243 7.69603 27.1643 7.23826 28.6693 9.24281C30.8187 12.1059 35.1231 23.6966 37.7076 31.393C37.8963 31.9549 38.0853 32.5593 37.9266 33.1307C37.776 33.6729 37.3378 34.0826 36.8839 34.411C36.1598 34.935 35.3514 35.3275 34.5407 35.7015C31.2603 37.2146 29.6715 37.7682 26.1974 38.7489C25.5573 38.9296 24.8786 39.1015 24.2362 38.929C23.2222 38.6566 22.6209 37.6345 22.1327 36.6987C19.1563 30.9934 13.9372 17.7797 14.0346 17.8996Z" fill="white" stroke="#010101" stroke-width="0.5" stroke-linecap="round" stroke-linejoin="round"/>
<path d="M19.4078 16.4578C18.5501 17.3218 18.104 18.5366 17.9081 19.7424C17.5678 21.8369 18.1546 24.1288 19.6733 25.6C20.3352 26.2413 21.1492 26.7125 22.0133 27.0263C24.0546 27.7678 26.3997 27.6104 28.3263 26.6047C30.5564 25.4407 30.7459 23.7803 30.8937 23.0691C31.2849 21.1841 31.1527 18.8792 29.8574 17.2491C28.2303 15.2015 23.8004 12.0324 19.4076 16.4576L19.4078 16.4578Z" fill="#55D087" stroke="#010101" stroke-width="0.5" stroke-linecap="round" stroke-linejoin="round"/>
<path d="M32.7085 6.8411C33.8482 6.73883 34.9835 6.58883 36.1107 6.39148" stroke="#010101" stroke-width="0.5" stroke-linecap="round" stroke-linejoin="round"/>
<path d="M26.7875 16.6752C26.5611 19.5078 26.1985 22.3292 25.7012 25.1263C24.1476 24.7991 22.5942 24.4718 21.1533 24.1101C21.2281 23.497 21.4697 23.1017 21.6404 22.4387C22.4652 22.5898 23.195 22.6731 24.1702 22.9231C24.5345 20.8106 24.8988 18.6983 25.2632 16.5858C25.774 16.6271 26.285 16.6684 26.7875 16.6752Z" fill="white" stroke="#010101" stroke-width="0.5" stroke-linecap="round" stroke-linejoin="round"/>
<path d="M5.5874 45.0404C8.79543 37.9832 12.0465 30.8536 16.7881 24.7354C17.2026 24.2006 17.8582 23.6159 18.4596 23.9214C19.0651 24.229 18.9818 25.1182 18.7756 25.769C18.1964 27.597 18.2539 27.8739 17.4923 29.4926C18.2515 31.0801 18.8474 32.8243 19.782 34.2513C20.0822 34.9356 20.3823 35.6201 20.5902 36.2775C20.152 37.946 19.6771 39.6061 19.107 41.2337C18.0866 44.1472 16.7659 46.943 15.4478 49.7324" fill="white"/>
<path d="M5.5874 45.0404C8.79543 37.9832 12.0465 30.8536 16.7881 24.7354C17.2026 24.2006 17.8582 23.6159 18.4596 23.9214C19.0651 24.229 18.9818 25.1182 18.7756 25.769C18.1964 27.597 18.2539 27.8739 17.4923 29.4926C18.2515 31.0801 18.8474 32.8243 19.782 34.2513C20.0822 34.9356 20.3823 35.6201 20.5902 36.2775C20.152 37.946 19.6771 39.6061 19.107 41.2337C18.0866 44.1472 16.7659 46.943 15.4478 49.7324" stroke="#010101" stroke-width="0.5" stroke-linecap="round" stroke-linejoin="round"/>
<path d="M17.5079 29.5841C17.193 30.1457 16.8779 30.7072 16.563 31.2688C16.8952 31.375 17.1437 31.6572 17.3218 31.9589C17.7113 32.6188 17.8378 33.4093 17.8109 34.1767C17.784 34.944 17.6126 35.6977 17.4419 36.446" stroke="#010101" stroke-width="0.5" stroke-linecap="round" stroke-linejoin="round"/>
<path d="M32.4611 37.8826C32.1062 37.7744 31.3209 38.0188 31.1248 38.5305C30.9257 39.05 31.1805 39.6873 31.6565 39.9701C31.8011 40.0561 31.9667 40.1138 32.1344 40.1066C32.7343 40.0811 33.3791 39.772 33.3295 39.1023C33.296 38.6512 33.1949 38.1059 32.4611 37.8826Z" fill="white" stroke="#010101" stroke-width="0.5" stroke-linecap="round" stroke-linejoin="round"/>
<path d="M39.0856 46.3928C36.4807 43.9712 32.8053 39.1498 30.0233 35.2292C29.2852 34.189 27.7949 32.1904 28.7607 31.9415C29.3367 31.793 29.8877 32.229 30.3384 32.637C31.4404 33.6345 32.5423 34.632 33.6443 35.6296C31.6724 32.1123 26.7109 23.1398 28.1004 21.8587C28.5687 21.4269 29.219 22.0989 29.5074 22.6813C31.2806 26.2625 32.6406 28.7496 34.4138 32.3309C33.3035 30.4089 32.0033 27.0606 32.9132 26.4587C33.7765 25.8875 33.9549 27.287 34.4356 28.2754C34.9163 29.2638 35.6234 30.346 36.2731 31.5415C35.1068 29.6254 33.2433 26.2057 34.4495 25.8102C35.4615 25.4786 36.924 29.1222 38.0392 30.6955C37.0336 29.5231 35.2555 25.8214 36.1872 25.3184C37.241 24.7495 39.0228 28.3282 39.8209 30.0894C39.0217 28.8663 37.1045 25.0979 38.4808 24.8006C39.23 24.6387 39.6992 25.6996 40.0675 26.3892C43.4547 32.7334 42.5264 36.883 46.7788 42.0137" fill="white"/>
<path d="M39.0856 46.3928C36.4807 43.9712 32.8053 39.1498 30.0233 35.2292C29.2852 34.189 27.7949 32.1904 28.7607 31.9415C29.3367 31.793 29.8877 32.229 30.3384 32.637C31.4404 33.6345 32.5423 34.632 33.6443 35.6296C31.6724 32.1123 26.7109 23.1398 28.1004 21.8587C28.5687 21.4269 29.219 22.0989 29.5074 22.6813C31.2806 26.2625 32.6406 28.7496 34.4138 32.3309C33.3035 30.4089 32.0033 27.0606 32.9132 26.4587C33.7765 25.8875 33.9549 27.287 34.4356 28.2754C34.9163 29.2638 35.6234 30.346 36.2731 31.5415C35.1068 29.6254 33.2433 26.2057 34.4495 25.8102C35.4615 25.4786 36.924 29.1222 38.0392 30.6955C37.0336 29.5231 35.2555 25.8214 36.1872 25.3184C37.241 24.7495 39.0228 28.3282 39.8209 30.0894C39.0217 28.8663 37.1045 25.0979 38.4808 24.8006C39.23 24.6387 39.6992 25.6996 40.0675 26.3892C43.4547 32.7334 42.5264 36.883 46.7788 42.0137" stroke="#010101" stroke-width="0.5" stroke-linecap="round" stroke-linejoin="round"/>
<path d="M39.5712 41.0015C39.2196 41.6506 39.2251 42.4906 39.7434 43.0142C40.2617 43.5379 41.0691 43.6923 41.7897 43.5517C42.2547 43.461 42.7328 43.2248 42.9279 42.7902C43.101 42.404 43.0136 41.954 42.901 41.5459C42.8048 41.1966 42.6837 40.8377 42.4276 40.5832C42.0684 40.2262 40.3361 39.5894 39.5712 41.0015Z" stroke="#010101" stroke-width="0.5" stroke-linecap="round" stroke-linejoin="round"/>
<path d="M41.9053 40.2875C42.5373 39.8805 43.9236 39.0839 44.5555 38.6769" stroke="#010101" stroke-width="0.5" stroke-linecap="round" stroke-linejoin="round"/>
<path d="M43.0254 41.8636C43.6253 41.5419 44.8163 40.6761 45.3481 40.2496" stroke="#010101" stroke-width="0.5" stroke-linecap="round" stroke-linejoin="round"/>
<path d="M36.8613 44.0559C37.8151 43.2653 38.082 42.9059 39.3273 41.9602" stroke="#010101" stroke-width="0.5" stroke-linecap="round" stroke-linejoin="round"/>
<path d="M38.1592 45.3864C39.0163 44.6972 39.3864 44.2883 40.2435 43.5989" stroke="#010101" stroke-width="0.5" stroke-linecap="round" stroke-linejoin="round"/>
<path d="M40.729 40.7953L41.0683 41.9491C41.3678 41.7578 41.6673 41.5665 41.9668 41.3752" stroke="#010101" stroke-width="0.5" stroke-linecap="round" stroke-linejoin="round"/>
</g>
</g>
<defs>
<clipPath id="clip0_167_553">
<rect width="47" height="50" fill="white"/>
</clipPath>
</defs>
</svg>
