<svg width="129" height="128" viewBox="0 0 129 128" fill="none" xmlns="http://www.w3.org/2000/svg">
<path d="M3.17871 64C3.17871 111.502 54.6013 141.191 95.7394 117.44C114.832 106.417 126.593 86.0459 126.593 64C126.593 16.4979 75.1704 -13.191 34.0322 10.56C14.94 21.583 3.17871 41.9541 3.17871 64Z" fill="#92D7EE" fill-opacity="0.2"/>
<path d="M29 20.4244L90.3914 12.9038L100.061 91.8357L38.6692 99.3562L29 20.4244Z" fill="#D2F4FF" stroke="#045571" stroke-width="0.24" stroke-linecap="round" stroke-linejoin="round"/>
<path d="M74.464 28.208L48.1523 31.4306L46.541 18.2761C49.8535 14.774 54.354 12.6347 59.1612 12.2772C63.9112 11.4645 68.7935 12.4535 72.8528 15.0508L74.464 28.208Z" fill="white" stroke="#045571" stroke-width="0.24" stroke-linecap="round" stroke-linejoin="round"/>
<path d="M39.3818 32.5052L83.2329 27.1334L89.679 79.7546L45.828 85.1264L39.3818 32.5052Z" fill="white" stroke="#045571" stroke-width="0.24" stroke-linecap="round" stroke-linejoin="round"/>
<path d="M64.4079 69.0873C63.7268 69.0071 63.0741 68.7685 62.5019 68.3905L54.2886 63.0472C53.3083 62.4091 52.6216 61.4077 52.3796 60.2634C52.1376 59.119 52.3601 57.9254 52.9982 56.9451C53.6363 55.9648 54.6377 55.2781 55.782 55.0361C56.9264 54.7941 58.12 55.0166 59.1003 55.6547L62.5432 57.8967L68.7266 39.5393C69.1002 38.4308 69.8989 37.5161 70.947 36.9965C71.995 36.4769 73.2065 36.3949 74.3151 36.7685C75.4236 37.1421 76.3382 37.9408 76.8579 38.9889C77.3775 40.0369 77.4595 41.2484 77.0859 42.357L69.0984 66.1044C68.7764 67.0612 68.1357 67.8783 67.2834 68.4193C66.4311 68.9602 65.4189 69.1922 64.4161 69.0763L64.4079 69.0873Z" fill="#01A2D8" stroke="#045571" stroke-width="0.24" stroke-linecap="round" stroke-linejoin="round"/>
<path d="M65.52 117.013C75.928 117.013 84.3651 115.747 84.3651 114.186C84.3651 112.625 75.928 111.359 65.52 111.359C55.1122 111.359 46.6748 112.625 46.6748 114.186C46.6748 115.747 55.1122 117.013 65.52 117.013Z" fill="#96C3D2"/>
<path d="M21.8262 110.742L26.2199 109.967C26.7562 109.873 27.1145 109.362 27.0197 108.826L23.1046 86.6265C23.0101 86.091 22.4996 85.7335 21.9641 85.8277L17.5693 86.6028L21.8262 110.742Z" fill="white" stroke="#045571" stroke-width="0.24" stroke-linecap="round" stroke-linejoin="round"/>
<path d="M43.0244 79.3488C42.5152 72.5529 40.8723 58.0646 35.2966 59.0476C33.075 59.4398 31.5917 61.5584 31.9833 63.7801L32.2197 65.1216C33.9532 74.9561 31.5007 85.9902 23.25 87.445L26.8676 108.009L27.9235 107.823C33.0796 106.914 36.1515 110.06 45.3872 108.432L61.0328 105.674C63.7876 105.199 64.995 101.92 63.2061 99.7716C62.3698 98.7672 61.0583 98.2898 59.772 98.5215L61.5597 98.2063C64.3145 97.7312 65.5219 94.452 63.733 92.3039C62.8967 91.2995 61.5853 90.8221 60.299 91.0537L62.0866 90.7385C64.8414 90.2634 66.0489 86.9844 64.2601 84.8362C63.4237 83.8319 62.1122 83.3543 60.8259 83.586L62.6136 83.2708C65.3684 82.7957 66.5758 79.5166 64.787 77.3685C63.9506 76.3641 62.6391 75.8867 61.3528 76.1182L43.0244 79.3488Z" fill="white" stroke="#045571" stroke-width="0.24" stroke-linecap="round" stroke-linejoin="round"/>
<path d="M39.4473 79.9793L43.0236 79.3489" stroke="#045571" stroke-width="0.24" stroke-linecap="round" stroke-linejoin="round"/>
<path d="M59.772 98.5204L57.9834 98.8356" stroke="#045571" stroke-width="0.24" stroke-linecap="round" stroke-linejoin="round"/>
<path d="M60.2984 91.0527L58.5098 91.3679" stroke="#045571" stroke-width="0.24" stroke-linecap="round" stroke-linejoin="round"/>
<path d="M60.8257 83.5851L59.0371 83.9003" stroke="#045571" stroke-width="0.24" stroke-linecap="round" stroke-linejoin="round"/>
<path d="M3.17871 87.2963L16.2841 84.9866C16.82 84.8918 17.3311 85.2495 17.4257 85.7854L21.9701 111.561C22.0649 112.097 21.7072 112.608 21.1713 112.702L8.06592 115.012L3.17871 87.2963Z" fill="#01A2D8"/>
<path d="M3.17871 87.2963L16.2841 84.9866C16.82 84.8918 17.3311 85.2495 17.4257 85.7854L21.9701 111.561C22.0649 112.097 21.7072 112.608 21.1713 112.702L8.06592 115.012" stroke="#045571" stroke-width="0.24" stroke-linecap="round" stroke-linejoin="round"/>
</svg>
