<svg width="129" height="128" viewBox="0 0 129 128" fill="none" xmlns="http://www.w3.org/2000/svg">
<path d="M2.40723 64C2.40723 111.799 54.1512 141.674 95.5464 117.774C114.758 106.682 126.593 86.1836 126.593 64C126.593 16.201 74.8489 -13.6735 33.4536 10.2261C14.242 21.3179 2.40723 41.8164 2.40723 64Z" fill="#92D7EE" fill-opacity="0.2"/>
<path d="M67.52 118.013C77.928 118.013 86.3651 116.747 86.3651 115.186C86.3651 113.625 77.928 112.359 67.52 112.359C57.1122 112.359 48.6748 113.625 48.6748 115.186C48.6748 116.747 57.1122 118.013 67.52 118.013Z" fill="#96C3D2"/>
<path d="M42.6122 16.1622H86.0151L103.375 33.5218V96.4435C103.375 97.6438 102.402 98.6167 101.201 98.6167H42.6122C41.4119 98.6167 40.439 97.6438 40.439 96.4435V18.3323C40.4407 17.1332 41.4132 16.162 42.6122 16.1622Z" fill="white"/>
<path d="M42.6122 16.1622H86.0151L103.375 33.5218V96.4435C103.375 97.6438 102.402 98.6167 101.201 98.6167H42.6122C41.4119 98.6167 40.439 97.6438 40.439 96.4435V18.3323C40.4407 17.1332 41.4132 16.162 42.6122 16.1622Z" stroke="#045571" stroke-width="0.24" stroke-linecap="round" stroke-linejoin="round"/>
<path d="M103.375 33.5217L86.0151 16.1622V31.3516C86.0151 32.5519 86.9881 33.5248 88.1884 33.5248L103.375 33.5217Z" fill="white" stroke="#045571" stroke-width="0.24" stroke-linecap="round" stroke-linejoin="round"/>
<path d="M22.0039 81.2588C21.9902 100.468 42.7762 112.489 59.4189 102.896C67.1536 98.4374 71.9174 90.1864 71.9111 81.2588C71.9247 62.0494 51.1386 50.0289 34.4961 59.6216C26.7612 64.08 21.9976 72.331 22.0039 81.2588Z" fill="#01A2D8" stroke="#045571" stroke-width="0.24" stroke-linecap="round" stroke-linejoin="round"/>
<path d="M27.4292 81.2588C27.4292 96.2915 43.7027 105.687 56.7214 98.1705C62.7635 94.6822 66.4856 88.2354 66.4856 81.2588C66.4856 66.2258 50.2121 56.8304 37.1932 64.3468C31.1512 67.8352 27.4292 74.2819 27.4292 81.2588Z" fill="white"/>
<path d="M27.4292 81.2588C27.4292 96.2915 43.7027 105.687 56.7214 98.1705C62.7635 94.6822 66.4856 88.2354 66.4856 81.2588C66.4856 66.2258 50.2121 56.8304 37.1932 64.3468C31.1512 67.8352 27.4292 74.2819 27.4292 81.2588Z" stroke="#045571" stroke-width="0.24" stroke-linecap="round" stroke-linejoin="round"/>
<path d="M52.0938 27.0113H75.9622" stroke="#045571" stroke-width="0.24" stroke-linecap="round" stroke-linejoin="round"/>
<path d="M52.0938 34.6068H75.9622" stroke="#045571" stroke-width="0.24" stroke-linecap="round" stroke-linejoin="round"/>
<path d="M52.0938 42.2007H92.2367" stroke="#045571" stroke-width="0.24" stroke-linecap="round" stroke-linejoin="round"/>
<path d="M52.0938 49.7947H92.2367" stroke="#045571" stroke-width="0.24" stroke-linecap="round" stroke-linejoin="round"/>
<path d="M69.4536 57.3902H92.237" stroke="#045571" stroke-width="0.24" stroke-linecap="round" stroke-linejoin="round"/>
<path d="M75.9624 64.9841H92.2369" stroke="#045571" stroke-width="0.24" stroke-linecap="round" stroke-linejoin="round"/>
<path d="M79.2173 72.5797H92.2366" stroke="#045571" stroke-width="0.24" stroke-linecap="round" stroke-linejoin="round"/>
<path d="M80.3027 80.1736H92.237" stroke="#045571" stroke-width="0.24" stroke-linecap="round" stroke-linejoin="round"/>
<path d="M79.2173 87.7676H92.2366" stroke="#045571" stroke-width="0.24" stroke-linecap="round" stroke-linejoin="round"/>
<path d="M43.4009 91.0228C42.6346 91.0234 41.8995 90.7189 41.358 90.1768L35.5819 84.399C34.0387 82.7994 34.8057 80.1292 36.9626 79.5924C37.9271 79.3525 38.9472 79.6253 39.6629 80.3149L43.3977 84.0498L52.9103 74.5372C54.4566 72.9387 57.1533 73.6135 57.7645 75.7518C58.0574 76.7768 57.7621 77.8798 56.996 78.6213L45.4406 90.1768C44.8999 90.7182 44.1661 91.0225 43.4009 91.0228Z" fill="#01A2D8" stroke="#045571" stroke-width="0.24"/>
</svg>
