<svg width="19" height="20" viewBox="0 0 19 20" fill="none" xmlns="http://www.w3.org/2000/svg">
<path d="M1.07232 10.6151C0.826533 10.369 0.688477 10.0354 0.688477 9.68756C0.688477 9.33975 0.826533 9.00616 1.07232 8.76007L8.50982 1.32257C8.75592 1.07678 9.08951 0.938721 9.43732 0.938721C9.78514 0.938721 10.1187 1.07678 10.3648 1.32257L17.8023 8.76007C18.0344 9.00882 18.1609 9.33799 18.155 9.67818C18.1491 10.0184 18.0114 10.343 17.7708 10.5836C17.5302 10.8241 17.2056 10.9619 16.8654 10.9678C16.5253 10.9736 16.1961 10.8472 15.9473 10.6151L10.7498 5.41757V18.4376C10.7498 18.7857 10.6115 19.1195 10.3654 19.3656C10.1193 19.6118 9.78542 19.7501 9.43732 19.7501C9.08922 19.7501 8.75539 19.6118 8.50924 19.3656C8.2631 19.1195 8.12482 18.7857 8.12482 18.4376V5.41757L2.92732 10.6151C2.68123 10.8609 2.34764 10.9989 1.99982 10.9989C1.65201 10.9989 1.31842 10.8609 1.07232 10.6151Z" fill="white"/>
</svg>
