<svg width="24" height="24" viewBox="0 0 24 24" fill="none" xmlns="http://www.w3.org/2000/svg">
<path d="M17.6801 7.81947C17.7801 7.72266 17.8599 7.60685 17.9148 7.47878C17.9697 7.35071 17.9987 7.21295 18 7.07354C18.0012 6.93414 17.9748 6.79587 17.9222 6.66681C17.8697 6.53776 17.792 6.42049 17.6938 6.32187C17.5956 6.22324 17.4787 6.14522 17.3501 6.09237C17.2215 6.03952 17.0837 6.01289 16.9448 6.01403C16.8058 6.01518 16.6684 6.04408 16.5407 6.09904C16.413 6.15401 16.2975 6.23394 16.2009 6.33417L12.0059 10.5409L7.81238 6.33417C7.71656 6.23101 7.60101 6.14828 7.47262 6.09089C7.34423 6.03351 7.20564 6.00265 7.06511 6.00016C6.92457 5.99768 6.78498 6.02361 6.65466 6.07642C6.52433 6.12922 6.40594 6.20782 6.30655 6.30752C6.20717 6.40722 6.12882 6.52598 6.07618 6.65671C6.02354 6.78745 5.99768 6.92748 6.00016 7.06845C6.00264 7.20943 6.0334 7.34846 6.09061 7.47725C6.14781 7.60604 6.23029 7.72195 6.33312 7.81807L10.5239 12.0262L6.33033 16.2329C6.14545 16.4319 6.0448 16.6952 6.04959 16.9672C6.05437 17.2392 6.16422 17.4987 6.35598 17.6911C6.54774 17.8834 6.80645 17.9936 7.0776 17.9984C7.34875 18.0032 7.61118 17.9023 7.80959 17.7168L12.0059 13.5101L16.1995 17.7182C16.3979 17.9037 16.6603 18.0046 16.9315 17.9998C17.2026 17.995 17.4613 17.8848 17.6531 17.6925C17.8448 17.5001 17.9547 17.2406 17.9595 16.9686C17.9643 16.6966 17.8636 16.4333 17.6787 16.2343L13.488 12.0262L17.6801 7.81947Z" fill="white"/>
</svg>
