<svg width="44" height="38" viewBox="0 0 44 38" fill="none" xmlns="http://www.w3.org/2000/svg">
<path d="M33.0001 27.7998H31.5334V22.6665H43.2667V28.5332C43.2667 28.5332 42.5334 36.5998 37.4001 36.5998H6.60007C1.46673 36.5998 0.733398 28.5332 0.733398 28.5332V22.6665H12.4667V27.7998H11.0001L12.4667 30.7332H31.5334L33.0001 27.7998Z" fill="#DCE1EB"/>
<path d="M40.3335 22.6665V28.5332C40.3335 28.5332 39.6001 36.5998 34.4668 36.5998H37.4001C42.5335 36.5998 43.2668 28.5332 43.2668 28.5332V22.6665H40.3335Z" fill="#E9EDF5"/>
<path d="M12.4667 22.6665H0.733398V27.7998H12.4667V22.6665Z" fill="#BEC3D2"/>
<path d="M43.2665 22.6665H31.5332V27.7998H43.2665V22.6665Z" fill="#BEC3D2"/>
<path d="M28.5998 1.39992C30.6029 1.39682 32.5734 1.90659 34.3237 2.88069C36.0741 3.85479 37.5458 5.26078 38.5989 6.96474C39.652 8.66871 40.2513 10.6139 40.3398 12.6151C40.4283 14.6162 40.0029 16.6067 39.1043 18.397C38.2057 20.1872 36.8637 21.7176 35.2062 22.8423C33.5486 23.9671 31.6307 24.6487 29.6352 24.8224C27.6396 24.9961 25.6328 24.6559 23.8059 23.8344C21.979 23.0129 20.3928 21.7374 19.1984 20.1293C18.0205 21.0619 16.9875 22.1641 16.1331 23.3999C16.1001 21.4276 16.7188 19.4995 17.8931 17.9146C17.0919 16.1289 16.7508 14.1711 16.9008 12.2197C17.0508 10.2683 17.6872 8.38558 18.7519 6.74337C19.8165 5.10116 21.2756 3.75177 22.9958 2.81838C24.716 1.88499 26.6426 1.39733 28.5998 1.39992Z" fill="#01A2D8"/>
<path d="M28.6005 20.4665C29.4105 20.4665 30.0671 19.8099 30.0671 18.9999C30.0671 18.1899 29.4105 17.5332 28.6005 17.5332C27.7904 17.5332 27.1338 18.1899 27.1338 18.9999C27.1338 19.8099 27.7904 20.4665 28.6005 20.4665Z" fill="#F2F6FC"/>
<path d="M30.0671 7.26672V13.1334C30.0671 13.5224 29.9126 13.8954 29.6375 14.1705C29.3625 14.4455 28.9894 14.6 28.6005 14.6C28.2115 14.6 27.8384 14.4455 27.5634 14.1705C27.2883 13.8954 27.1338 13.5224 27.1338 13.1334V7.26672C27.1338 6.87773 27.2883 6.50468 27.5634 6.22963C27.8384 5.95457 28.2115 5.80005 28.6005 5.80005C28.9894 5.80005 29.3625 5.95457 29.6375 6.22963C29.9126 6.50468 30.0671 6.87773 30.0671 7.26672Z" fill="#F2F6FC"/>
<path d="M40.3338 13.1333C40.3357 11.1752 39.8471 9.24775 38.9126 7.52706C37.978 5.80637 36.6273 4.34721 34.9837 3.28284C33.3402 2.21846 31.4561 1.58279 29.5037 1.43386C27.5513 1.28493 25.5926 1.62749 23.8066 2.43026C26.6465 1.7807 29.6264 2.21143 32.1661 3.63856C34.7058 5.06569 36.6234 7.38703 37.5453 10.1505C38.4673 12.9139 38.3277 15.9216 37.1536 18.5877C35.9796 21.2539 33.8552 23.3876 31.1942 24.5733C33.7895 23.9861 36.1079 22.5338 37.7688 20.4549C39.4296 18.376 40.3341 15.7941 40.3338 13.1333Z" fill="#058EBC"/>
<path d="M43.2667 21.9333H37.4213C39.0142 20.3384 40.1449 18.3414 40.6931 16.1549C41.2412 13.9685 41.1863 11.6743 40.5341 9.51652C39.8819 7.35879 38.6569 5.41825 36.9895 3.90143C35.322 2.38461 33.2745 1.34827 31.0648 0.902709C28.8551 0.457147 26.566 0.619033 24.441 1.37114C22.3161 2.12325 20.4348 3.43743 18.9974 5.17382C17.56 6.91021 16.6203 9.00384 16.2783 11.2319C15.9363 13.4599 16.2047 15.739 17.0551 17.8266C15.9474 19.4719 15.3699 21.4168 15.4 23.3999C15.4 23.5572 15.4506 23.7103 15.5443 23.8366C15.638 23.9629 15.7698 24.0557 15.9203 24.1014C16.0707 24.1471 16.2319 24.1432 16.38 24.0903C16.5281 24.0374 16.6553 23.9383 16.7427 23.8077C17.4181 22.8404 18.2031 21.9545 19.0821 21.1677C20.245 22.5609 21.701 23.6805 23.3461 24.4466C24.9913 25.2127 26.7852 25.6065 28.6 25.5999C29.338 25.5963 30.0742 25.5273 30.8 25.3939V27.7999C30.8 27.9944 30.8773 28.181 31.0148 28.3185C31.1523 28.456 31.3388 28.5333 31.5333 28.5333H31.8135L31.0801 29.9999H12.9199L12.1865 28.5333H12.4667C12.6612 28.5333 12.8477 28.456 12.9852 28.3185C13.1227 28.181 13.2 27.9944 13.2 27.7999V22.6666C13.2 22.4721 13.1227 22.2856 12.9852 22.1481C12.8477 22.0105 12.6612 21.9333 12.4667 21.9333H0.733333C0.538841 21.9333 0.352315 22.0105 0.214788 22.1481C0.0772617 22.2856 0 22.4721 0 22.6666L0 28.5993C0.0352 28.9564 0.863133 37.3333 6.6 37.3333H37.4C43.1369 37.3333 43.9648 28.9564 44 28.5333V22.6666C44 22.4721 43.9227 22.2856 43.7852 22.1481C43.6477 22.0105 43.4612 21.9333 43.2667 21.9333ZM19.7846 19.6915C19.6679 19.5359 19.4942 19.433 19.3016 19.4055C19.1091 19.378 18.9135 19.4281 18.7579 19.5448C18.1997 19.968 17.6773 20.4365 17.1959 20.9455C17.4611 20.0096 17.8964 19.1306 18.48 18.3524C18.5582 18.2478 18.6071 18.1242 18.6215 17.9943C18.636 17.8645 18.6155 17.7332 18.5621 17.6139C17.9276 16.2054 17.5996 14.6781 17.6 13.1333C17.5924 10.5107 18.5193 7.97124 20.2145 5.97019C21.9097 3.96915 24.2622 2.63744 26.8504 2.21386C29.4385 1.79028 32.0929 2.30254 34.3375 3.65879C36.5821 5.01503 38.2702 7.12654 39.0991 9.61468C39.9279 12.1028 39.8432 14.8048 38.8603 17.2362C37.8773 19.6676 36.0604 21.6693 33.7352 22.8824C31.4101 24.0955 28.7289 24.4406 26.1723 23.8558C23.6158 23.2711 21.3512 21.7947 19.7846 19.6915ZM37.4 35.8666H6.6C2.2 35.8666 1.47033 28.5406 1.46667 28.5333V23.3999H11.7333V27.0666H8.06667C7.87217 27.0666 7.68565 27.1439 7.54812 27.2814C7.4106 27.4189 7.33333 27.6054 7.33333 27.7999C7.33333 27.9944 7.4106 28.181 7.54812 28.3185C7.68565 28.456 7.87217 28.5333 8.06667 28.5333H10.5468L11.8103 31.0611C11.8712 31.183 11.9649 31.2855 12.0809 31.3571C12.1968 31.4288 12.3304 31.4667 12.4667 31.4666H31.5333C31.6702 31.4673 31.8046 31.4298 31.9212 31.3581C32.0379 31.2864 32.1321 31.1835 32.1933 31.0611L33.4532 28.5333H35.9333C36.1278 28.5333 36.3144 28.456 36.4519 28.3185C36.5894 28.181 36.6667 27.9944 36.6667 27.7999C36.6667 27.6054 36.5894 27.4189 36.4519 27.2814C36.3144 27.1439 36.1278 27.0666 35.9333 27.0666H32.2667V25.0477C33.4963 24.6658 34.659 24.095 35.7133 23.3559C35.7839 23.382 35.8582 23.3969 35.9333 23.3999H42.5333V28.4665C42.5333 28.5406 41.8 35.8666 37.4 35.8666Z" fill="#045571"/>
<path d="M28.6004 5.06665C28.0169 5.06665 27.4573 5.29844 27.0448 5.71102C26.6322 6.1236 26.4004 6.68317 26.4004 7.26665V13.1333C26.4004 13.7168 26.6322 14.2764 27.0448 14.689C27.4573 15.1015 28.0169 15.3333 28.6004 15.3333C29.1839 15.3333 29.7434 15.1015 30.156 14.689C30.5686 14.2764 30.8004 13.7168 30.8004 13.1333V7.26665C30.8004 6.68317 30.5686 6.1236 30.156 5.71102C29.7434 5.29844 29.1839 5.06665 28.6004 5.06665ZM29.3337 13.1333C29.3337 13.3278 29.2565 13.5143 29.1189 13.6519C28.9814 13.7894 28.7949 13.8666 28.6004 13.8666C28.4059 13.8666 28.2194 13.7894 28.0818 13.6519C27.9443 13.5143 27.8671 13.3278 27.8671 13.1333V7.26665C27.8671 7.07216 27.9443 6.88563 28.0818 6.74811C28.2194 6.61058 28.4059 6.53332 28.6004 6.53332C28.7949 6.53332 28.9814 6.61058 29.1189 6.74811C29.2565 6.88563 29.3337 7.07216 29.3337 7.26665V13.1333Z" fill="#045571"/>
<path d="M28.6004 16.8C28.1653 16.8 27.7399 16.9291 27.3781 17.1708C27.0163 17.4126 26.7344 17.7561 26.5679 18.1581C26.4013 18.5601 26.3578 19.0025 26.4427 19.4292C26.5276 19.856 26.7371 20.248 27.0448 20.5557C27.3524 20.8634 27.7444 21.0729 28.1712 21.1578C28.598 21.2427 29.0403 21.1991 29.4423 21.0326C29.8443 20.8661 30.1879 20.5841 30.4296 20.2223C30.6714 19.8605 30.8004 19.4352 30.8004 19C30.8004 18.4166 30.5686 17.857 30.156 17.4444C29.7434 17.0318 29.1839 16.8 28.6004 16.8ZM28.6004 19.7334C28.4554 19.7334 28.3136 19.6904 28.193 19.6098C28.0724 19.5292 27.9784 19.4147 27.9229 19.2807C27.8674 19.1467 27.8529 18.9992 27.8811 18.857C27.9094 18.7147 27.9793 18.5841 28.0818 18.4815C28.1844 18.3789 28.3151 18.3091 28.4573 18.2808C28.5996 18.2525 28.747 18.267 28.881 18.3225C29.015 18.378 29.1296 18.472 29.2101 18.5926C29.2907 18.7132 29.3337 18.855 29.3337 19C29.3337 19.1945 29.2565 19.3811 29.1189 19.5186C28.9814 19.6561 28.7949 19.7334 28.6004 19.7334Z" fill="#045571"/>
</svg>
