<svg width="45" height="45" viewBox="0 0 45 45" fill="none" xmlns="http://www.w3.org/2000/svg">
<g clip-path="url(#clip0_279_316)">
<path d="M1.33594 15.2124V29.6499C1.33594 33.4312 4.35937 36.5249 8.05469 36.5249H10.7422C11.6828 36.5249 12.4219 37.2811 12.4219 38.2437V42.4374C12.4219 43.0561 13.1609 43.3312 13.5641 42.9187L18.8047 37.5562C19.4094 36.9374 20.2828 36.5249 21.1562 36.5249H30.1594C33.8547 36.5249 36.8781 33.4312 36.8781 29.6499V15.2124C36.8781 11.4312 33.8547 8.3374 30.1594 8.3374H7.9875C4.35937 8.3374 1.33594 11.4312 1.33594 15.2124Z" fill="#B0BEC5" stroke="#045571" stroke-miterlimit="10" stroke-linecap="round" stroke-linejoin="round"/>
<path d="M1.33594 12.4624V26.8999C1.33594 30.6812 4.35937 33.7749 8.05469 33.7749H10.7422C11.6828 33.7749 12.4219 34.5311 12.4219 35.4937V39.6874C12.4219 40.3061 13.1609 40.5812 13.5641 40.1686L18.8047 34.8062C19.4094 34.1874 20.2828 33.7749 21.1562 33.7749H30.1594C33.8547 33.7749 36.8781 30.6812 36.8781 26.8999V12.4624C36.8781 8.68115 33.8547 5.5874 30.1594 5.5874H7.9875C4.35937 5.5874 1.33594 8.68115 1.33594 12.4624Z" fill="#ECEFF1" stroke="#045571" stroke-miterlimit="10" stroke-linecap="round" stroke-linejoin="round"/>
<path d="M2.67969 16.5874V12.4624C2.67969 9.4374 5.09844 6.9624 8.05469 6.9624H12.0859" stroke="white" stroke-miterlimit="10" stroke-linecap="round" stroke-linejoin="round"/>
<path d="M5.36719 13.1499H23.5078" stroke="#01A2D8" stroke-miterlimit="10" stroke-linecap="round" stroke-linejoin="round"/>
<path d="M5.36719 16.5874H18.8047" stroke="#01A2D8" stroke-miterlimit="10" stroke-linecap="round" stroke-linejoin="round"/>
<path d="M5.36719 20.0249H12.0859" stroke="#01A2D8" stroke-miterlimit="10" stroke-linecap="round" stroke-linejoin="round"/>
<path d="M31.1 6L29.1516 7.99375C28.4125 8.75 28.2109 9.78125 28.4797 10.7437C28.2109 11.1562 28.0766 11.5687 28.0766 12.05L21.0219 19.2C20.8203 19.4063 20.6859 19.75 20.6188 20.0938L18.4016 22.3625C18.2 22.5688 18.1328 22.775 18.0656 22.9813L16.8563 27.5875C16.8563 27.725 16.7891 27.7938 16.7891 27.9313C16.7891 28.275 16.9234 28.6187 17.1922 28.8937C17.4609 29.1687 17.7969 29.3063 18.1328 29.3063C18.2672 29.3063 18.3344 29.3062 18.4688 29.2375L22.9703 28C23.1719 27.9312 23.4406 27.7938 23.575 27.6562L25.7922 25.3875C26.1281 25.3875 26.3969 25.25 26.6656 24.975L33.6531 17.825C34.325 17.7563 34.9969 17.4812 35.4672 16.9312L36.5422 15.8312V12.3937C36.6094 9.1625 34.1906 6.4125 31.1 6Z" fill="#B0BEC5"/>
<path d="M42.8582 2.7C43.9332 3.8 43.9332 5.51875 42.8582 6.61875L25.7926 24.0813L21.9629 20.1625L39.0957 2.7C40.1035 1.6 41.8504 1.6 42.8582 2.7Z" fill="#01A2D8" stroke="#045571" stroke-miterlimit="10" stroke-linecap="round" stroke-linejoin="round"/>
<path d="M22.2314 20.4375L25.5236 23.8063L22.7018 26.7625L18.2002 27.9313L19.3424 23.325L22.2314 20.4375Z" fill="#ECEFF1" stroke="#045571" stroke-miterlimit="10" stroke-linecap="round" stroke-linejoin="round"/>
<path d="M30.0252 10.95C29.4877 10.4 29.4877 9.57495 30.0252 9.02495L34.7955 4.1437C35.333 3.5937 36.1393 3.5937 36.6768 4.1437L30.0252 10.95Z" fill="#01A2D8" stroke="#045571" stroke-miterlimit="10" stroke-linecap="round" stroke-linejoin="round"/>
<path d="M41.2453 9.2312L34.5938 16.0375C33.9219 16.725 32.8469 16.725 32.2422 16.0375L29.8906 13.6312C29.2188 12.9437 29.2188 11.8437 29.8906 11.225L36.5422 4.4187C37.2141 3.7312 38.2891 3.7312 38.8938 4.4187L41.2453 6.82495C41.85 7.51245 41.85 8.5437 41.2453 9.2312Z" fill="#045571" stroke="#045571" stroke-miterlimit="10" stroke-linecap="round" stroke-linejoin="round"/>
<path d="M18.9393 24.9062L18.2002 27.9313L21.1564 27.175L18.9393 24.9062Z" fill="#01A2D8" stroke="#045571" stroke-miterlimit="10" stroke-linecap="round" stroke-linejoin="round"/>
</g>
<defs>
<clipPath id="clip0_279_316">
<rect width="44" height="44" fill="white" transform="translate(0.5 0.5)"/>
</clipPath>
</defs>
</svg>
