<svg width="16" height="17" viewBox="0 0 16 17" fill="none" xmlns="http://www.w3.org/2000/svg">
<g clip-path="url(#clip0_231_155)">
<path d="M6.58565 12.5813C6.77138 12.7672 6.99192 12.9146 7.23465 13.0152C7.47738 13.1158 7.73756 13.1676 8.00031 13.1676C8.26306 13.1676 8.52324 13.1158 8.76598 13.0152C9.00871 12.9146 9.22925 12.7672 9.41498 12.5813L11.5556 10.4407C11.6704 10.3137 11.732 10.1475 11.7276 9.97644C11.7232 9.80536 11.6532 9.64253 11.532 9.52165C11.4109 9.40077 11.2479 9.3311 11.0768 9.32707C10.9058 9.32304 10.7397 9.38496 10.613 9.5L8.66231 11.4513L8.66698 1.16667C8.66698 0.989856 8.59674 0.820286 8.47172 0.695262C8.34669 0.570238 8.17712 0.5 8.00031 0.5V0.5C7.8235 0.5 7.65393 0.570238 7.52891 0.695262C7.40388 0.820286 7.33365 0.989856 7.33365 1.16667L7.32765 11.4387L5.38765 9.5C5.26255 9.375 5.09292 9.3048 4.91608 9.30486C4.73923 9.30493 4.56965 9.37524 4.44465 9.50033C4.31964 9.62543 4.24945 9.79506 4.24951 9.9719C4.24957 10.1487 4.31989 10.3183 4.44498 10.4433L6.58565 12.5813Z" fill="#01A2D8"/>
<path d="M15.3333 11.1665C15.1565 11.1665 14.987 11.2367 14.8619 11.3618C14.7369 11.4868 14.6667 11.6564 14.6667 11.8332V14.4998C14.6667 14.6766 14.5964 14.8462 14.4714 14.9712C14.3464 15.0963 14.1768 15.1665 14 15.1665H2C1.82319 15.1665 1.65362 15.0963 1.5286 14.9712C1.40357 14.8462 1.33333 14.6766 1.33333 14.4998V11.8332C1.33333 11.6564 1.2631 11.4868 1.13807 11.3618C1.01305 11.2367 0.843478 11.1665 0.666667 11.1665C0.489856 11.1665 0.320286 11.2367 0.195262 11.3618C0.0702379 11.4868 0 11.6564 0 11.8332L0 14.4998C0 15.0303 0.210714 15.539 0.585786 15.914C0.960859 16.2891 1.46957 16.4998 2 16.4998H14C14.5304 16.4998 15.0391 16.2891 15.4142 15.914C15.7893 15.539 16 15.0303 16 14.4998V11.8332C16 11.6564 15.9298 11.4868 15.8047 11.3618C15.6797 11.2367 15.5101 11.1665 15.3333 11.1665Z" fill="#01A2D8"/>
</g>
<defs>
<clipPath id="clip0_231_155">
<rect width="16" height="16" fill="white" transform="translate(0 0.5)"/>
</clipPath>
</defs>
</svg>
