<svg width="17" height="16" viewBox="0 0 17 16" fill="none" xmlns="http://www.w3.org/2000/svg">
<g clip-path="url(#clip0_231_138)">
<path d="M8.3053 16.005L7.84058 15.6067C7.19993 15.0702 1.60596 10.2391 1.60596 6.7052C1.60596 3.00527 4.60536 0.00585938 8.3053 0.00585938C12.0052 0.00585938 15.0046 3.00527 15.0046 6.7052C15.0046 10.2391 9.41068 15.0703 8.77268 15.6093L8.3053 16.005ZM8.3053 1.45445C5.40677 1.45773 3.05786 3.80664 3.05458 6.70517C3.05458 8.92523 6.49621 12.4717 8.3053 14.095C10.1144 12.4711 13.556 8.92255 13.556 6.70517C13.5527 3.80664 11.2039 1.45777 8.3053 1.45445Z" fill="#01A2D8"/>
<path d="M8.30546 9.36044C6.83884 9.36044 5.6499 8.1715 5.6499 6.70488C5.6499 5.23825 6.83884 4.04932 8.30546 4.04932C9.77209 4.04932 10.961 5.23825 10.961 6.70488C10.961 8.1715 9.77212 9.36044 8.30546 9.36044ZM8.30546 5.37707C7.57215 5.37707 6.97768 5.97154 6.97768 6.70485C6.97768 7.43816 7.57215 8.03263 8.30546 8.03263C9.03878 8.03263 9.63325 7.43816 9.63325 6.70485C9.63325 5.97154 9.03881 5.37707 8.30546 5.37707Z" fill="#01A2D8"/>
</g>
<defs>
<clipPath id="clip0_231_138">
<rect width="16" height="16" fill="white" transform="translate(0.333496)"/>
</clipPath>
</defs>
</svg>
