<svg width="17" height="17" viewBox="0 0 17 17" fill="none" xmlns="http://www.w3.org/2000/svg">
<g clip-path="url(#clip0_231_145)">
<path d="M9.33299 1.16675C9.33299 0.989944 9.40323 0.820375 9.52825 0.69535C9.65327 0.570326 9.82284 0.500088 9.99965 0.500088C11.7672 0.502029 13.4617 1.20503 14.7115 2.45485C15.9614 3.70468 16.6644 5.39924 16.6663 7.16676C16.6663 7.34357 16.5961 7.51314 16.4711 7.63816C16.346 7.76318 16.1765 7.83342 15.9996 7.83342C15.8228 7.83342 15.6533 7.76318 15.5282 7.63816C15.4032 7.51314 15.333 7.34357 15.333 7.16676C15.3314 5.75276 14.769 4.39712 13.7691 3.39727C12.7693 2.39742 11.4137 1.83501 9.99965 1.83342C9.82284 1.83342 9.65327 1.76318 9.52825 1.63816C9.40323 1.51314 9.33299 1.34357 9.33299 1.16675ZM9.99965 4.50009C10.7069 4.50009 11.3852 4.78104 11.8853 5.28114C12.3854 5.78123 12.6663 6.45951 12.6663 7.16676C12.6663 7.34357 12.7366 7.51314 12.8616 7.63816C12.9866 7.76318 13.1562 7.83342 13.333 7.83342C13.5098 7.83342 13.6794 7.76318 13.8044 7.63816C13.9294 7.51314 13.9996 7.34357 13.9996 7.16676C13.9986 6.10621 13.5768 5.08941 12.8269 4.3395C12.077 3.58958 11.0602 3.16781 9.99965 3.16675C9.82284 3.16675 9.65327 3.23699 9.52825 3.36202C9.40323 3.48704 9.33299 3.65661 9.33299 3.83342C9.33299 4.01023 9.40323 4.1798 9.52825 4.30483C9.65327 4.42985 9.82284 4.50009 9.99965 4.50009ZM16.0616 11.6594C16.448 12.0468 16.6649 12.5716 16.6649 13.1188C16.6649 13.6659 16.448 14.1907 16.0616 14.5781L15.455 15.2774C9.99499 20.5048 -3.29166 7.22142 1.855 1.74409L2.62166 1.07742C3.00951 0.701873 3.52962 0.494121 4.06946 0.499111C4.60931 0.504102 5.12549 0.721434 5.50633 1.10409C5.52699 1.12475 6.76232 2.72942 6.76232 2.72942C7.12888 3.11451 7.33293 3.62604 7.33206 4.15769C7.33119 4.68934 7.12547 5.2002 6.75766 5.58409L5.98566 6.55476C6.41289 7.59283 7.04103 8.53625 7.834 9.33082C8.62696 10.1254 9.56911 10.7554 10.6063 11.1848L11.583 10.4081C11.9669 10.0406 12.4777 9.83509 13.0092 9.83434C13.5407 9.8336 14.052 10.0376 14.437 10.4041C14.437 10.4041 16.041 11.6388 16.0616 11.6594ZM15.1443 12.6288C15.1443 12.6288 13.549 11.4014 13.5283 11.3808C13.391 11.2446 13.2054 11.1682 13.012 11.1682C12.8186 11.1682 12.633 11.2446 12.4956 11.3808C12.4776 11.3994 11.133 12.4708 11.133 12.4708C11.0424 12.5429 10.9345 12.5902 10.8201 12.6079C10.7056 12.6257 10.5885 12.6133 10.4803 12.5721C9.13663 12.0718 7.91615 11.2886 6.90155 10.2755C5.88695 9.26237 5.10193 8.04304 4.59966 6.70009C4.55513 6.59039 4.54061 6.47081 4.5576 6.35365C4.57459 6.23648 4.62247 6.12595 4.69633 6.03342C4.69633 6.03342 5.76766 4.68809 5.78566 4.67076C5.92184 4.53341 5.99824 4.34783 5.99824 4.15442C5.99824 3.96101 5.92184 3.77543 5.78566 3.63809C5.76499 3.61809 4.53766 2.02142 4.53766 2.02142C4.39826 1.89643 4.21633 1.82949 4.02916 1.83432C3.84199 1.83915 3.66376 1.9154 3.53099 2.04742L2.76433 2.71409C-0.997 7.23676 10.517 18.1121 14.4803 14.3668L15.0876 13.6668C15.23 13.5349 15.3154 13.3529 15.326 13.1592C15.3366 12.9655 15.2714 12.7753 15.1443 12.6288Z" fill="#01A2D8"/>
</g>
<defs>
<clipPath id="clip0_231_145">
<rect width="16" height="16" fill="white" transform="translate(0.666504 0.5)"/>
</clipPath>
</defs>
</svg>
