<svg width="24" height="24" viewBox="0 0 24 24" fill="none" xmlns="http://www.w3.org/2000/svg">
<g clip-path="url(#clip0_343_5490)">
<path d="M16.6667 8V6.66667C16.6667 5.95942 16.3857 5.28115 15.8856 4.78105C15.3855 4.28095 14.7072 4 14 4H10C9.29276 4 8.61448 4.28095 8.11438 4.78105C7.61428 5.28115 7.33333 5.95942 7.33333 6.66667V8C6.4496 8.00106 5.60237 8.35259 4.97748 8.97748C4.35259 9.60237 4.00106 10.4496 4 11.3333L4 14.6667C4.00106 15.5504 4.35259 16.3976 4.97748 17.0225C5.60237 17.6474 6.4496 17.9989 7.33333 18C7.33333 18.5304 7.54405 19.0391 7.91912 19.4142C8.29419 19.7893 8.8029 20 9.33333 20H14.6667C15.1971 20 15.7058 19.7893 16.0809 19.4142C16.456 19.0391 16.6667 18.5304 16.6667 18C17.5504 17.9989 18.3976 17.6474 19.0225 17.0225C19.6474 16.3976 19.9989 15.5504 20 14.6667V11.3333C19.9989 10.4496 19.6474 9.60237 19.0225 8.97748C18.3976 8.35259 17.5504 8.00106 16.6667 8ZM8.66667 6.66667C8.66667 6.31304 8.80714 5.97391 9.05719 5.72386C9.30724 5.47381 9.64638 5.33333 10 5.33333H14C14.3536 5.33333 14.6928 5.47381 14.9428 5.72386C15.1929 5.97391 15.3333 6.31304 15.3333 6.66667V8H8.66667V6.66667ZM15.3333 18C15.3333 18.1768 15.2631 18.3464 15.1381 18.4714C15.013 18.5964 14.8435 18.6667 14.6667 18.6667H9.33333C9.15652 18.6667 8.98695 18.5964 8.86193 18.4714C8.7369 18.3464 8.66667 18.1768 8.66667 18V15.3333C8.66667 15.1565 8.7369 14.987 8.86193 14.8619C8.98695 14.7369 9.15652 14.6667 9.33333 14.6667H14.6667C14.8435 14.6667 15.013 14.7369 15.1381 14.8619C15.2631 14.987 15.3333 15.1565 15.3333 15.3333V18ZM18.6667 14.6667C18.6667 15.1971 18.456 15.7058 18.0809 16.0809C17.7058 16.456 17.1971 16.6667 16.6667 16.6667V15.3333C16.6667 14.8029 16.456 14.2942 16.0809 13.9191C15.7058 13.544 15.1971 13.3333 14.6667 13.3333H9.33333C8.8029 13.3333 8.29419 13.544 7.91912 13.9191C7.54405 14.2942 7.33333 14.8029 7.33333 15.3333V16.6667C6.8029 16.6667 6.29419 16.456 5.91912 16.0809C5.54405 15.7058 5.33333 15.1971 5.33333 14.6667V11.3333C5.33333 10.8029 5.54405 10.2942 5.91912 9.91912C6.29419 9.54405 6.8029 9.33333 7.33333 9.33333H16.6667C17.1971 9.33333 17.7058 9.54405 18.0809 9.91912C18.456 10.2942 18.6667 10.8029 18.6667 11.3333V14.6667Z" fill="#045571"/>
<path d="M16 10.667H14.6667C14.4899 10.667 14.3203 10.7372 14.1953 10.8623C14.0702 10.9873 14 11.1568 14 11.3337C14 11.5105 14.0702 11.68 14.1953 11.8051C14.3203 11.9301 14.4899 12.0003 14.6667 12.0003H16C16.1768 12.0003 16.3464 11.9301 16.4714 11.8051C16.5964 11.68 16.6667 11.5105 16.6667 11.3337C16.6667 11.1568 16.5964 10.9873 16.4714 10.8623C16.3464 10.7372 16.1768 10.667 16 10.667Z" fill="#045571"/>
</g>
<defs>
<clipPath id="clip0_343_5490">
<rect width="16" height="16" fill="white" transform="translate(4 4)"/>
</clipPath>
</defs>
</svg>
