<svg width="16" height="17" viewBox="0 0 16 17" fill="none" xmlns="http://www.w3.org/2000/svg">
<path d="M15.8045 15.3623L11.8252 11.383C12.9096 10.0567 13.4428 8.3644 13.3144 6.65605C13.1861 4.9477 12.406 3.35403 11.1356 2.20469C9.86516 1.05535 8.20158 0.438271 6.48895 0.481092C4.77632 0.523914 3.14566 1.22336 1.93426 2.43475C0.72287 3.64614 0.0234252 5.2768 -0.019396 6.98944C-0.0622172 8.70207 0.554862 10.3656 1.7042 11.6361C2.85354 12.9065 4.44721 13.6865 6.15556 13.8149C7.86392 13.9433 9.55625 13.4101 10.8825 12.3257L14.8619 16.305C14.9876 16.4264 15.156 16.4936 15.3308 16.4921C15.5056 16.4906 15.6728 16.4205 15.7964 16.2969C15.92 16.1733 15.9901 16.0061 15.9916 15.8313C15.9932 15.6565 15.926 15.4881 15.8045 15.3623ZM6.66652 12.5003C5.61169 12.5003 4.58054 12.1875 3.70348 11.6015C2.82642 11.0155 2.14283 10.1825 1.73916 9.20799C1.3355 8.23345 1.22988 7.16109 1.43567 6.12653C1.64145 5.09196 2.14941 4.14165 2.89529 3.39577C3.64117 2.64989 4.59147 2.14194 5.62604 1.93615C6.6606 1.73037 7.73296 1.83598 8.7075 2.23965C9.68204 2.64332 10.515 3.32691 11.101 4.20397C11.6871 5.08103 11.9999 6.11218 11.9999 7.16701C11.9983 8.58101 11.4359 9.93664 10.436 10.9365C9.43615 11.9363 8.08052 12.4988 6.66652 12.5003Z" fill="#01A2D8"/>
</svg>
