<svg width="12" height="24" viewBox="0 0 12 24" fill="none" xmlns="http://www.w3.org/2000/svg">
<path d="M0.999939 24C0.868332 24.0007 0.73787 23.9755 0.616033 23.9257C0.494195 23.876 0.383379 23.8027 0.289939 23.71C0.196211 23.617 0.121816 23.5064 0.0710478 23.3846C0.0202791 23.2627 -0.00585938 23.132 -0.00585938 23C-0.00585938 22.868 0.0202791 22.7373 0.0710478 22.6154C0.121816 22.4935 0.196211 22.3829 0.289939 22.29L8.45994 14.12C9.02174 13.5575 9.3373 12.795 9.3373 12C9.3373 11.205 9.02174 10.4425 8.45994 9.87999L0.289939 1.71C0.101635 1.5217 -0.00415277 1.2663 -0.00415277 1C-0.00415277 0.7337 0.101635 0.478305 0.289939 0.290002C0.478243 0.101698 0.733637 -0.00408936 0.999939 -0.00408936C1.26624 -0.00408936 1.52164 0.101698 1.70994 0.290002L9.87994 8.45999C10.3456 8.92445 10.715 9.4762 10.9671 10.0837C11.2191 10.6911 11.3489 11.3423 11.3489 12C11.3489 12.6577 11.2191 13.3089 10.9671 13.9163C10.715 14.5238 10.3456 15.0755 9.87994 15.54L1.70994 23.71C1.6165 23.8027 1.50568 23.876 1.38385 23.9257C1.26201 23.9755 1.13155 24.0007 0.999939 24Z" fill="white"/>
</svg>
