<svg width="129" height="128" viewBox="0 0 129 128" fill="none" xmlns="http://www.w3.org/2000/svg">
<path d="M2.40723 64C2.40723 107.659 49.6697 134.946 87.4798 113.117C105.027 102.986 115.837 84.2623 115.837 64C115.837 20.3407 68.5748 -6.94635 30.7648 14.8833C13.2171 25.0145 2.40723 43.7376 2.40723 64Z" fill="#E9F7FC"/>
<path d="M60.52 109.013C70.928 109.013 79.3651 107.747 79.3651 106.186C79.3651 104.625 70.928 103.359 60.52 103.359C50.1122 103.359 41.6748 104.625 41.6748 106.186C41.6748 107.747 50.1122 109.013 60.52 109.013Z" fill="#96C3D2"/>
<path d="M20.7979 41.1128C19.8049 41.1129 19 41.9178 19 42.9107V84.6233C19 85.6161 19.8049 86.421 20.7979 86.421H82.6003C83.3155 86.4205 84.0011 86.1365 84.5074 85.6313L93.7122 76.4251C94.2205 75.918 94.5052 75.2289 94.5033 74.5109V42.9107C94.5033 41.9177 93.6984 41.1128 92.7055 41.1128H20.7979Z" fill="white"/>
<path d="M20.7979 41.1128C19.8049 41.1129 19 41.9178 19 42.9107V84.6233C19 85.6161 19.8049 86.421 20.7979 86.421H82.6003C83.3155 86.4205 84.0011 86.1365 84.5074 85.6313L93.7122 76.4251C94.2205 75.918 94.5052 75.2289 94.5033 74.5109V42.9107C94.5033 41.9177 93.6984 41.1128 92.7055 41.1128H20.7979Z" stroke="#045571" stroke-width="0.24" stroke-linecap="round" stroke-linejoin="round"/>
<path d="M19 49.7434V42.5307C19 41.7477 19.6347 41.1128 20.4179 41.1128H93.0854C93.8686 41.1129 94.5033 41.7477 94.5033 42.5307V49.7434H19Z" fill="#01A2D8"/>
<path d="M26.5503 63.7634H54.5944" stroke="#045571" stroke-width="0.24" stroke-linecap="round" stroke-linejoin="round"/>
<path d="M26.5503 57.2924H47.0442" stroke="#045571" stroke-width="0.24" stroke-linecap="round" stroke-linejoin="round"/>
<path d="M53.6999 71.3136C51.3571 73.6679 52.4414 77.6756 55.6517 78.5273C58.387 79.253 61.0685 77.1934 61.0728 74.3635V75.227C61.0779 77.8836 63.957 79.5385 66.2552 78.2058C67.3177 77.5897 67.9727 76.4551 67.975 75.227C67.9758 77.1332 69.5212 78.6782 71.4276 78.6781H74.0166" stroke="#045571" stroke-width="0.24" stroke-linecap="round" stroke-linejoin="round"/>
<path d="M19 49.7434V42.5307C19 41.7477 19.6347 41.1128 20.4179 41.1128H93.0855C93.8686 41.1129 94.5033 41.7477 94.5033 42.5307V49.7434H19Z" stroke="#045571" stroke-width="0.24" stroke-linecap="round" stroke-linejoin="round"/>
<path d="M122.219 34.1723L88.4561 67.9319H88.4363L81.7056 61.2013V61.18L115.465 27.4191C118.051 24.8062 122.496 25.9725 123.466 29.5184C123.92 31.1811 123.444 32.9598 122.219 34.1723Z" fill="white"/>
<path d="M94.2583 75.6282H85.5142C84.5217 75.6282 83.7171 76.4322 83.7163 77.4247V86.1673" stroke="#045571" stroke-width="0.24" stroke-linecap="round" stroke-linejoin="round"/>
<path d="M107.027 35.8567L113.779 42.6101" stroke="#045571" stroke-width="0.24" stroke-linecap="round" stroke-linejoin="round"/>
<path d="M98.5854 35.8568L104.495 29.9486C106.825 27.6158 110.606 27.6158 112.936 29.9486" stroke="#045571" stroke-width="0.24" stroke-linecap="round" stroke-linejoin="round"/>
<path d="M88.4363 67.932L78.3184 71.318L81.7057 61.2014L88.4363 67.932Z" fill="#01A2D8" stroke="#045571" stroke-width="0.24" stroke-linecap="round" stroke-linejoin="round"/>
<path d="M122.219 34.1723L88.4561 67.9319H88.4363L81.7056 61.2013V61.1801L115.465 27.4191C118.051 24.8062 122.496 25.9725 123.466 29.5184C123.92 31.1811 123.444 32.9598 122.219 34.1723Z" stroke="#045571" stroke-width="0.24" stroke-linecap="round" stroke-linejoin="round"/>
</svg>
