<svg width="129" height="128" viewBox="0 0 129 128" fill="none" xmlns="http://www.w3.org/2000/svg">
<path d="M2.79297 64C2.79297 111.651 54.3764 141.433 95.6431 117.607C114.795 106.55 126.593 86.1148 126.593 64C126.593 16.3492 75.0098 -13.4325 33.7431 10.3929C14.591 21.4503 2.79297 41.8852 2.79297 64Z" fill="#E9F7FC"/>
<path d="M64.52 118.013C74.928 118.013 83.3651 116.747 83.3651 115.186C83.3651 113.625 74.928 112.359 64.52 112.359C54.1122 112.359 45.6748 113.625 45.6748 115.186C45.6748 116.747 54.1122 118.013 64.52 118.013Z" fill="#96C3D2"/>
<path d="M86.9996 105.282C86.9958 106.045 86.3811 106.664 85.6183 106.673L37.6007 107.001C36.8378 107.007 36.2151 106.393 36.2097 105.63L35.7539 41.8739L86.9996 41.6309V105.282Z" fill="white" stroke="#045571" stroke-width="0.24" stroke-linecap="round" stroke-linejoin="round"/>
<path d="M62.8838 69.2758L79.6263 69.099" stroke="#045571" stroke-width="0.24" stroke-linecap="round" stroke-linejoin="round"/>
<path d="M45.2119 76.1726L79.6736 75.9365" stroke="#045571" stroke-width="0.24" stroke-linecap="round" stroke-linejoin="round"/>
<path d="M45.2588 83.0099L79.7205 82.7737" stroke="#045571" stroke-width="0.24" stroke-linecap="round" stroke-linejoin="round"/>
<path d="M64.733 90.7258C63.0531 92.4293 63.8472 95.3125 66.1624 95.9155C68.14 96.4307 70.0681 94.9297 70.0536 92.8861V93.5091C70.0669 95.4231 72.1471 96.6049 73.7981 95.6364C74.5643 95.1869 75.0324 94.3629 75.0262 93.4745C75.0362 94.8478 76.1574 95.9529 77.5305 95.9429L79.3953 95.9305" stroke="#045571" stroke-width="0.24" stroke-linecap="round" stroke-linejoin="round"/>
<path d="M64.2461 99.5218L79.0603 99.4197" stroke="#01A2D8" stroke-width="0.24" stroke-linecap="round" stroke-linejoin="round"/>
<path d="M44.2988 99.6585L59.1144 99.5564" stroke="#01A2D8" stroke-width="0.24" stroke-linecap="round" stroke-linejoin="round"/>
<path d="M45.8596 97.0674C43.8667 97.1209 42.5631 94.9968 43.5133 93.2441C44.4634 91.4913 46.9546 91.4245 47.9975 93.1237C48.2353 93.511 48.3668 93.954 48.3791 94.4084" stroke="#045571" stroke-width="0.24" stroke-linecap="round" stroke-linejoin="round"/>
<path d="M58.7098 93.2673C58.7484 94.6945 57.6244 95.8836 56.1973 95.9249" stroke="#045571" stroke-width="0.24" stroke-linecap="round" stroke-linejoin="round"/>
<path d="M48.4023 95.2716C48.3638 93.8424 49.4912 92.6525 50.9205 92.614" stroke="#045571" stroke-width="0.24" stroke-linecap="round" stroke-linejoin="round"/>
<path d="M52.716 95.1625C52.6742 93.7324 53.7999 92.5394 55.2299 92.498" stroke="#045571" stroke-width="0.24" stroke-linecap="round" stroke-linejoin="round"/>
<path d="M124.107 26.261H98.0366C96.7149 26.2594 95.6426 27.3303 95.6426 28.652V55.888C95.6426 57.2084 96.713 58.2788 98.0335 58.2788H124.107" fill="#01A2D8"/>
<path d="M124.107 26.261H98.0366C96.7149 26.2594 95.6426 27.3303 95.6426 28.652V55.888C95.6426 57.2084 96.713 58.2788 98.0335 58.2788H124.107" stroke="#045571" stroke-width="0.24" stroke-linecap="round" stroke-linejoin="round"/>
<path d="M95.6431 56.2161H92.1705C90.669 56.2134 89.4531 54.9955 89.4531 53.494V31.0552C89.4531 29.5518 90.6718 28.333 92.1752 28.3331H95.6431V56.2161Z" fill="white" stroke="#045571" stroke-width="0.24" stroke-linecap="round" stroke-linejoin="round"/>
<path d="M89.453 31.049L72.7802 21.5273C71.2524 20.6529 69.3673 20.6898 67.8746 21.6232L46.4588 35.0075C41.4208 38.6897 41.2027 46.1325 46.0162 50.1034L57.3129 59.4255C61.1891 62.6258 66.6534 63.0588 70.9851 60.5089L82.8901 53.4986H89.453V31.049Z" fill="white" stroke="#045571" stroke-width="0.24" stroke-linecap="round" stroke-linejoin="round"/>
<path d="M3.18066 29.6223H28.3369C29.6573 29.6223 30.7278 30.6927 30.7278 32.0131V59.2491C30.7278 60.5696 29.6573 61.6401 28.3369 61.6401H3.18066" fill="#01A2D8"/>
<path d="M3.18066 29.6223H28.3369C29.6573 29.6223 30.7278 30.6927 30.7278 32.0131V59.2491C30.7278 60.5696 29.6573 61.6401 28.3369 61.6401H3.18066" stroke="#045571" stroke-width="0.24" stroke-linecap="round" stroke-linejoin="round"/>
<path d="M30.7285 59.5757H34.2072C35.7105 59.5756 36.9293 58.3569 36.9293 56.8536V34.4148C36.9318 32.9096 35.7124 31.688 34.2072 31.6882H30.7285V59.5757Z" fill="white" stroke="#045571" stroke-width="0.24" stroke-linecap="round" stroke-linejoin="round"/>
<path d="M36.9258 34.4101L53.5924 24.8869C55.1209 24.014 57.0053 24.0514 58.498 24.9843L79.9154 38.3672C84.9529 42.0504 85.1704 49.4935 80.3564 53.4646L69.0597 62.7868C65.1827 65.9865 59.7183 66.4193 55.3858 63.87L43.4825 56.8583H36.9258V34.4101Z" fill="white"/>
<path d="M36.9258 34.4101L53.5924 24.8869C55.1209 24.014 57.0053 24.0514 58.498 24.9843L79.9154 38.3672C84.9529 42.0504 85.1704 49.4935 80.3564 53.4646L69.0597 62.7868C65.1827 65.9865 59.7183 66.4193 55.3858 63.87L43.4825 56.8583H36.9258V34.4101Z" stroke="#045571" stroke-width="0.24" stroke-linecap="round" stroke-linejoin="round"/>
<path d="M74.3542 32.0178L60.1389 42.9091C57.3377 45.0549 53.298 44.3261 51.4233 41.3368C49.8049 38.756 50.3816 35.3715 52.7634 33.4724L66.7049 22.3566" fill="white"/>
<path d="M74.3542 32.0178L60.1389 42.9091C57.3377 45.0549 53.298 44.3261 51.4233 41.3368C49.8049 38.756 50.3816 35.3715 52.7634 33.4724L66.7049 22.3566" stroke="#045571" stroke-width="0.24" stroke-linecap="round" stroke-linejoin="round"/>
</svg>
