<svg width="129" height="128" viewBox="0 0 129 128" fill="none" xmlns="http://www.w3.org/2000/svg">
<path d="M64.5 126.093C98.793 126.093 126.593 98.293 126.593 64C126.593 29.707 98.793 1.9072 64.5 1.9072C30.2071 1.9072 2.40723 29.707 2.40723 64C2.40723 98.293 30.2071 126.093 64.5 126.093Z" fill="#92D7EE" fill-opacity="0.2"/>
<path d="M64.52 118.013C74.928 118.013 83.3651 116.747 83.3651 115.186C83.3651 113.625 74.928 112.359 64.52 112.359C54.1122 112.359 45.6748 113.625 45.6748 115.186C45.6748 116.747 54.1122 118.013 64.52 118.013Z" fill="#96C3D2"/>
<path d="M33.1772 97.3748C33.1772 97.91 33.3899 98.4234 33.7683 98.8017C34.1468 99.1803 34.66 99.3928 35.1951 99.3928H93.8015C94.3368 99.3928 94.8501 99.1803 95.2285 98.8017C95.607 98.4234 95.8195 97.91 95.8195 97.3748V31.6915L78.6462 14.515H35.1983C34.663 14.515 34.1498 14.7277 33.7714 15.1061C33.3929 15.4846 33.1803 15.998 33.1803 16.533L33.1772 97.3748Z" fill="white" stroke="#045571" stroke-width="0.24" stroke-linecap="round" stroke-linejoin="round"/>
<path d="M95.823 31.6915H80.5326C80.0328 31.6903 79.5538 31.4911 79.2004 31.1377C78.847 30.7843 78.6478 30.3052 78.6465 29.8054V14.515L95.823 31.6915Z" fill="#01A2D8" stroke="#045571" stroke-width="0.24" stroke-linecap="round" stroke-linejoin="round"/>
<path d="M44.7344 63.4147L47.2988 65.8455L54.1104 57.6276" stroke="#01A2D8" stroke-width="0.24" stroke-linecap="round" stroke-linejoin="round"/>
<path d="M57.2412 63.9999L58.4706 65.1889C58.6659 65.378 58.8968 65.5263 59.1496 65.6261C59.4027 65.7255 59.6727 65.7742 59.9445 65.7689C60.2162 65.7637 60.4844 65.7049 60.7332 65.5958C60.9821 65.4867 61.2072 65.3294 61.3952 65.133L62.5842 63.9052C62.7727 63.7102 62.9978 63.5543 63.2467 63.4465C63.4955 63.3385 63.7631 63.2806 64.0343 63.2762C64.3053 63.2719 64.5749 63.3207 64.8269 63.4204C65.0792 63.52 65.3092 63.6684 65.5042 63.8571L66.732 65.0446C66.9269 65.2331 67.1569 65.3815 67.4092 65.4812C67.6614 65.5808 67.9308 65.6299 68.202 65.6254C68.4732 65.6209 68.7408 65.563 68.9894 65.4551C69.2383 65.3473 69.4634 65.1914 69.652 64.9964L70.8395 63.7685C71.028 63.5736 71.253 63.4177 71.5019 63.3099C71.7508 63.2019 72.0183 63.144 72.2895 63.1396C72.5605 63.1351 72.8301 63.1841 73.0821 63.2838C73.3344 63.3834 73.5644 63.5318 73.7594 63.7205L75.2263 65.0523C75.421 65.241 75.6511 65.3891 75.9031 65.4888C76.1552 65.5884 76.4245 65.6375 76.6955 65.633C76.9664 65.6285 77.234 65.5708 77.4827 65.4627C77.7313 65.3549 77.9563 65.1992 78.1447 65.0041L79.3353 63.7763C79.5237 63.5814 79.7487 63.4256 79.9975 63.3177C80.246 63.2099 80.5136 63.152 80.7846 63.1474C81.0554 63.143 81.3249 63.192 81.5769 63.2916C81.8289 63.3912 82.0589 63.5396 82.2537 63.7282L83.8153 65.1812" stroke="#045571" stroke-width="0.24" stroke-linecap="round" stroke-linejoin="round"/>
<path d="M44.7344 42.5049L47.2988 44.9358L54.1104 36.7178" stroke="#01A2D8" stroke-width="0.24" stroke-linecap="round" stroke-linejoin="round"/>
<path d="M57.2412 43.0838L58.4706 44.2715C58.6654 44.4609 58.8958 44.6102 59.1486 44.7103C59.4012 44.8105 59.6711 44.8597 59.9429 44.8553C60.2147 44.8507 60.483 44.7927 60.7321 44.6842C60.9813 44.5758 61.2067 44.4192 61.3952 44.2233L62.5842 42.9954C62.7728 42.8006 62.9978 42.6446 63.2467 42.5367C63.4955 42.4288 63.7631 42.3709 64.0343 42.3666C64.3053 42.362 64.5749 42.4111 64.8269 42.5108C65.0792 42.6104 65.3092 42.7587 65.5042 42.9472L66.732 44.1349C66.9269 44.3234 67.1569 44.4718 67.4092 44.5714C67.6614 44.6711 67.9308 44.7202 68.202 44.7156C68.4732 44.7112 68.7408 44.6534 68.9894 44.5454C69.2383 44.4375 69.4634 44.2816 69.652 44.0867L70.8395 42.8588C71.028 42.664 71.253 42.508 71.5019 42.4001C71.7508 42.2922 72.0184 42.2343 72.2896 42.23C72.5605 42.2254 72.8301 42.2743 73.0821 42.3742C73.3344 42.4738 73.5644 42.6221 73.7594 42.8106L75.2263 44.1441C75.6197 44.5245 76.1483 44.7332 76.6955 44.7242C77.2427 44.7152 77.7639 44.4892 78.1447 44.0959L79.3353 42.8665C79.5237 42.6717 79.7487 42.5159 79.9975 42.408C80.246 42.3001 80.5136 42.2422 80.7846 42.2379C81.0554 42.2333 81.3249 42.2822 81.5769 42.3819C81.8289 42.4817 82.0589 42.6299 82.2537 42.8184L83.8154 44.2713" stroke="#045571" stroke-width="0.24" stroke-linecap="round" stroke-linejoin="round"/>
<path d="M44.7344 81.8096L47.2988 84.2406L54.1104 76.021" stroke="#01A2D8" stroke-width="0.24" stroke-linecap="round" stroke-linejoin="round"/>
<path d="M57.2412 81.4433L58.4706 82.6323C58.6654 82.8217 58.8958 82.9709 59.1486 83.0712C59.4012 83.1713 59.6711 83.2205 59.9429 83.2162C60.2147 83.2116 60.483 83.1535 60.7321 83.0451C60.9813 82.9367 61.2067 82.78 61.3952 82.5843L62.5842 81.3548C62.9653 80.9615 63.4869 80.7354 64.0343 80.7264C64.5818 80.7174 65.1104 80.926 65.5042 81.3067L66.732 82.4958C67.5517 83.2889 67.5626 80.9435 68.3558 80.1301L70.8395 81.2167C71.2206 80.8236 71.7422 80.5979 72.2896 80.5889C72.8369 80.5799 73.3654 80.7884 73.7594 81.1685" stroke="#045571" stroke-width="0.24" stroke-linecap="round" stroke-linejoin="round"/>
</svg>
