<svg width="129" height="128" viewBox="0 0 129 128" fill="none" xmlns="http://www.w3.org/2000/svg">
<path d="M2 64.1854C2 111.984 53.744 141.859 95.1392 117.959C114.351 106.868 126.186 86.369 126.186 64.1854C126.186 16.3864 74.4417 -13.4881 33.0464 10.4115C13.8348 21.5033 2 42.0018 2 64.1854Z" fill="#92D7EE" fill-opacity="0.2"/>
<path d="M11.0464 93.4368H117.953" stroke="#045571" stroke-width="0.24" stroke-linecap="round" stroke-linejoin="round"/>
<path d="M4.87891 93.4368H8.30542" stroke="#045571" stroke-width="0.24" stroke-linecap="round" stroke-linejoin="round"/>
<path d="M120.695 93.4368H124.121" stroke="#045571" stroke-width="0.24" stroke-linecap="round" stroke-linejoin="round"/>
<path d="M64.52 118.013C74.928 118.013 83.3651 116.747 83.3651 115.186C83.3651 113.625 74.928 112.359 64.52 112.359C54.1122 112.359 45.6748 113.625 45.6748 115.186C45.6748 116.747 54.1122 118.013 64.52 118.013Z" fill="#96C3D2"/>
<path d="M77.9634 32.7315H109.868V98.4175H77.9634V32.7315Z" fill="white"/>
<path d="M77.9634 32.7315H109.868V98.4175H77.9634V32.7315Z" stroke="#045571" stroke-width="0.24" stroke-linecap="round" stroke-linejoin="round"/>
<path d="M51.689 41.1757H77.9635V98.4163H51.689V41.1757Z" fill="white"/>
<path d="M51.689 41.1757H77.9635V46.8061H51.689V41.1757Z" fill="white"/>
<path d="M51.689 41.1757H77.9635V98.4163H51.689V41.1757Z" stroke="#045571" stroke-width="0.24" stroke-linecap="round" stroke-linejoin="round"/>
<path d="M83.5938 40.2382H89.2242V44.9298H83.5938V40.2382Z" fill="#01A2D8" stroke="#045571" stroke-width="0.24" stroke-linecap="round" stroke-linejoin="round"/>
<path d="M101.423 40.2382H106.114V44.9298H101.423V40.2382Z" fill="#01A2D8" stroke="#045571" stroke-width="0.24" stroke-linecap="round" stroke-linejoin="round"/>
<path d="M83.5938 49.6213H89.2242V54.3129H83.5938V49.6213Z" fill="#01A2D8" stroke="#045571" stroke-width="0.24" stroke-linecap="round" stroke-linejoin="round"/>
<path d="M101.423 49.6213H106.114V54.3129H101.423V49.6213Z" fill="#01A2D8" stroke="#045571" stroke-width="0.24" stroke-linecap="round" stroke-linejoin="round"/>
<path d="M83.5938 59.0058H89.2242V63.6975H83.5938V59.0058Z" fill="#01A2D8" stroke="#045571" stroke-width="0.24" stroke-linecap="round" stroke-linejoin="round"/>
<path d="M101.423 59.0058H106.114V63.6975H101.423V59.0058Z" fill="#01A2D8" stroke="#045571" stroke-width="0.24" stroke-linecap="round" stroke-linejoin="round"/>
<path d="M83.5938 68.3891H89.2242V73.0806H83.5938V68.3891Z" fill="#01A2D8" stroke="#045571" stroke-width="0.24" stroke-linecap="round" stroke-linejoin="round"/>
<path d="M101.423 68.3891H106.114V73.0806H101.423V68.3891Z" fill="#01A2D8" stroke="#045571" stroke-width="0.24" stroke-linecap="round" stroke-linejoin="round"/>
<path d="M83.5938 77.7736H89.2242V82.4651H83.5938V77.7736Z" fill="#01A2D8" stroke="#045571" stroke-width="0.24" stroke-linecap="round" stroke-linejoin="round"/>
<path d="M101.423 77.7736H106.114V82.4651H101.423V77.7736Z" fill="#01A2D8" stroke="#045571" stroke-width="0.24" stroke-linecap="round" stroke-linejoin="round"/>
<path d="M95.792 98.4175V40.2382" stroke="#045571" stroke-width="0.24" stroke-linecap="round" stroke-linejoin="round"/>
<path d="M71.0116 12.7083L32.207 2.79057" stroke="#045571" stroke-width="0.24" stroke-linecap="round" stroke-linejoin="round"/>
<path d="M12.0483 12.7083L32.2071 2.79057" stroke="#045571" stroke-width="0.24" stroke-linecap="round" stroke-linejoin="round"/>
<path d="M39.0961 17.2176L41.3493 25.1054H25.5723V17.2176H39.0961Z" fill="#01A2D8"/>
<path d="M6.41406 12.7083H72.9048V17.2162H6.41406V12.7083Z" fill="white" stroke="#045571" stroke-width="0.24" stroke-linecap="round" stroke-linejoin="round"/>
<path d="M27.8267 29.6133H36.8425V98.3805H27.8267V29.6133Z" fill="white" stroke="#045571" stroke-width="0.24" stroke-linecap="round" stroke-linejoin="round"/>
<path d="M29.1016 12.7083H35.5667C36.2005 12.7087 36.6536 12.0955 36.4673 11.4898L34.1372 3.92547C33.7094 2.53586 31.9379 2.13048 30.9484 3.19582C30.7548 3.40414 30.6107 3.65366 30.5271 3.92547L28.1971 11.4898C28.0102 12.0971 28.4662 12.7115 29.1016 12.7083Z" fill="white" stroke="#045571" stroke-width="0.24" stroke-linecap="round" stroke-linejoin="round"/>
<path d="M40.4036 29.6133H26.5194C25.9965 29.614 25.5723 29.1904 25.5723 28.6675V25.1041H41.3493V28.6675C41.3493 29.1899 40.9259 29.6133 40.4036 29.6133Z" fill="white" stroke="#045571" stroke-width="0.24" stroke-linecap="round" stroke-linejoin="round"/>
<path d="M39.0961 17.2176L41.3493 25.1054H25.5723V17.2176H39.0961Z" stroke="#045571" stroke-width="0.24" stroke-linecap="round" stroke-linejoin="round"/>
<path d="M60.8555 21.7254H67.1301C67.8872 21.7256 68.5007 21.1119 68.5007 20.3548V17.2176H59.4849V20.3548C59.4849 21.1119 60.0986 21.7256 60.8555 21.7254Z" fill="#01A2D8" stroke="#045571" stroke-width="0.24" stroke-linecap="round" stroke-linejoin="round"/>
<path d="M61.7397 23.9774C61.7397 25.7119 63.6175 26.796 65.1196 25.9288C65.8167 25.5263 66.2463 24.7824 66.2463 23.9774C66.2463 22.2428 64.3686 21.1588 62.8663 22.026C62.1692 22.4285 61.7397 23.1723 61.7397 23.9774Z" fill="#01A2D8" stroke="#045571" stroke-width="0.24" stroke-linecap="round" stroke-linejoin="round"/>
<path d="M36.8411 51.0263L27.8267 60.042" stroke="#045571" stroke-width="0.24" stroke-linecap="round" stroke-linejoin="round"/>
<path d="M27.8267 51.0263L36.8411 60.042" stroke="#045571" stroke-width="0.24" stroke-linecap="round" stroke-linejoin="round"/>
<path d="M36.8411 61.1687L27.8267 70.1846" stroke="#045571" stroke-width="0.24" stroke-linecap="round" stroke-linejoin="round"/>
<path d="M27.8267 61.1687L36.8411 70.1846" stroke="#045571" stroke-width="0.24" stroke-linecap="round" stroke-linejoin="round"/>
<path d="M36.8411 70.4367L27.8267 79.4525" stroke="#045571" stroke-width="0.24" stroke-linecap="round" stroke-linejoin="round"/>
<path d="M27.8267 70.4367L36.8411 79.4525" stroke="#045571" stroke-width="0.24" stroke-linecap="round" stroke-linejoin="round"/>
<path d="M36.8411 79.9007L27.8267 88.9166" stroke="#045571" stroke-width="0.24" stroke-linecap="round" stroke-linejoin="round"/>
<path d="M27.8267 79.9007L36.8411 88.9166" stroke="#045571" stroke-width="0.24" stroke-linecap="round" stroke-linejoin="round"/>
<path d="M36.8411 40.8837L27.8267 49.8982" stroke="#045571" stroke-width="0.24" stroke-linecap="round" stroke-linejoin="round"/>
<path d="M27.8267 40.8837L36.8411 49.8982" stroke="#045571" stroke-width="0.24" stroke-linecap="round" stroke-linejoin="round"/>
<path d="M36.8411 30.7399L27.8267 39.7558" stroke="#045571" stroke-width="0.24" stroke-linecap="round" stroke-linejoin="round"/>
<path d="M27.8267 30.7399L36.8411 39.7558" stroke="#045571" stroke-width="0.24" stroke-linecap="round" stroke-linejoin="round"/>
<path d="M42.8803 94.5936H11.1248C10.7462 94.5936 10.4395 94.9004 10.4395 95.2789V98.3805H43.5656V95.2789C43.5656 94.9004 43.2587 94.5936 42.8803 94.5936Z" fill="#01A2D8" stroke="#045571" stroke-width="0.24" stroke-linecap="round" stroke-linejoin="round"/>
<path d="M38.1473 90.8094H27.2195C26.841 90.8094 26.5342 91.1162 26.5342 91.4947V94.5936H38.8381V91.4947C38.8381 91.114 38.5278 90.8064 38.1473 90.8094Z" fill="#01A2D8" stroke="#045571" stroke-width="0.24" stroke-linecap="round" stroke-linejoin="round"/>
<path d="M12.332 90.8094H21.796V94.595H12.332V90.8094Z" fill="white" stroke="#045571" stroke-width="0.24" stroke-linecap="round" stroke-linejoin="round"/>
<path d="M12.332 87.0238H21.796V90.8094H12.332V87.0238Z" fill="white" stroke="#045571" stroke-width="0.24" stroke-linecap="round" stroke-linejoin="round"/>
<path d="M20.4268 83.2381H13.7026C12.9456 83.2381 12.332 83.8518 12.332 84.6087V87.0238H21.7974V84.6087C21.7974 83.8518 21.1837 83.2381 20.4268 83.2381Z" fill="white" stroke="#045571" stroke-width="0.24" stroke-linecap="round" stroke-linejoin="round"/>
<path d="M63.9931 26.232L57.3677 32.1352H70.6187L63.9931 26.232Z" stroke="#045571" stroke-width="0.24" stroke-linecap="round" stroke-linejoin="round"/>
<path d="M69.248 35.9209H58.7437C57.9866 35.9209 57.373 35.3072 57.373 34.5503V32.1352H70.624V34.5503C70.624 35.3093 70.007 35.9239 69.248 35.9209Z" fill="#01A2D8" stroke="#045571" stroke-width="0.24" stroke-linecap="round" stroke-linejoin="round"/>
<path d="M86.6611 24.2816H84.279C83.9005 24.2816 83.5938 24.5884 83.5938 24.9669V32.7273H87.3464V24.9669C87.3464 24.5884 87.0396 24.2816 86.6611 24.2816Z" fill="#01A2D8" stroke="#045571" stroke-width="0.24" stroke-linecap="round" stroke-linejoin="round"/>
<path d="M73.1346 32.7315H70.7498C70.3712 32.7315 70.0645 33.0382 70.0645 33.4168V41.1757H73.8199V33.4168C73.8199 33.0382 73.513 32.7315 73.1346 32.7315Z" fill="#01A2D8" stroke="#045571" stroke-width="0.24" stroke-linecap="round" stroke-linejoin="round"/>
<path d="M106.368 27.101H103.984C103.606 27.101 103.299 27.4078 103.299 27.7863V32.7315H107.053V27.7863C107.053 27.4078 106.746 27.101 106.368 27.101Z" fill="#01A2D8" stroke="#045571" stroke-width="0.24" stroke-linecap="round" stroke-linejoin="round"/>
<path d="M57.3179 46.8061H64.8246V88.0942H57.3179V46.8061Z" fill="#01A2D8" stroke="#045571" stroke-width="0.24" stroke-linecap="round" stroke-linejoin="round"/>
<path d="M77.9633 50.5602H49.5603C49.1818 50.5602 48.875 50.2534 48.875 49.8749V47.4914C48.875 47.1129 49.1818 46.8061 49.5603 46.8061H77.9633V50.5602Z" fill="white" stroke="#045571" stroke-width="0.24" stroke-linecap="round" stroke-linejoin="round"/>
<path d="M77.9633 59.9434H49.5603C49.1818 59.9434 48.875 59.6365 48.875 59.2581V56.8759C48.875 56.4975 49.1818 56.1906 49.5603 56.1906H77.9633V59.9434Z" fill="white" stroke="#045571" stroke-width="0.24" stroke-linecap="round" stroke-linejoin="round"/>
<path d="M77.9633 69.3279H49.5603C49.1818 69.3279 48.875 69.0211 48.875 68.6426V66.2592C48.875 65.8807 49.1818 65.5739 49.5603 65.5739H77.9633V69.3279Z" fill="white" stroke="#045571" stroke-width="0.24" stroke-linecap="round" stroke-linejoin="round"/>
<path d="M77.9633 78.7111H49.5603C49.1818 78.7111 48.875 78.4043 48.875 78.0257V75.6437C48.875 75.2652 49.1818 74.9584 49.5603 74.9584H77.9633V78.7111Z" fill="white" stroke="#045571" stroke-width="0.24" stroke-linecap="round" stroke-linejoin="round"/>
<path d="M77.9633 88.0956H49.5603C49.1818 88.0956 48.875 87.7888 48.875 87.4103V85.0268C48.875 84.6483 49.1818 84.3415 49.5603 84.3415H77.9633V88.0956Z" fill="white" stroke="#045571" stroke-width="0.24" stroke-linecap="round" stroke-linejoin="round"/>
<path d="M55.4419 91.8482H77.9637V98.4175H55.4419V91.8482Z" fill="#01A2D8" stroke="#045571" stroke-width="0.24" stroke-linecap="round" stroke-linejoin="round"/>
<path d="M68.5791 88.0956H118.313V104.048H68.5791V88.0956Z" fill="#01A2D8"/>
<path d="M68.5791 88.0956H118.313V104.048H68.5791V88.0956Z" stroke="#045571" stroke-width="0.24" stroke-linecap="round" stroke-linejoin="round"/>
<path d="M73.2705 93.726V98.4175" stroke="#045571" stroke-width="0.24" stroke-linecap="round" stroke-linejoin="round"/>
<path d="M78.9009 93.726V98.4175" stroke="#045571" stroke-width="0.24" stroke-linecap="round" stroke-linejoin="round"/>
<path d="M84.5312 93.726V98.4175" stroke="#045571" stroke-width="0.24" stroke-linecap="round" stroke-linejoin="round"/>
<path d="M90.1616 93.726V98.4175" stroke="#045571" stroke-width="0.24" stroke-linecap="round" stroke-linejoin="round"/>
<path d="M95.792 93.726V98.4175" stroke="#045571" stroke-width="0.24" stroke-linecap="round" stroke-linejoin="round"/>
<path d="M101.423 93.726V98.4175" stroke="#045571" stroke-width="0.24" stroke-linecap="round" stroke-linejoin="round"/>
<path d="M114.56 93.726V98.4175" stroke="#045571" stroke-width="0.24" stroke-linecap="round" stroke-linejoin="round"/>
<path d="M104.364 97.9214L107.059 93.2614C107.42 92.6362 108.323 92.6362 108.684 93.2614L111.378 97.9214C111.738 98.5471 111.287 99.3285 110.565 99.329H105.177C104.455 99.3285 104.004 98.5471 104.364 97.9214Z" fill="white" stroke="#045571" stroke-width="0.24" stroke-linecap="round" stroke-linejoin="round"/>
<path d="M68.1062 98.4545L72.281 106.803H61.1504V98.4545H68.1062Z" fill="white"/>
<path d="M68.1062 98.4545L72.281 106.803H61.1504V98.4545H68.1062Z" stroke="#045571" stroke-width="0.24" stroke-linecap="round" stroke-linejoin="round"/>
</svg>
