<svg width="129" height="128" viewBox="0 0 129 128" fill="none" xmlns="http://www.w3.org/2000/svg">
<path d="M2.40723 64C2.40723 111.799 54.1512 141.674 95.5464 117.774C114.758 106.682 126.593 86.1836 126.593 64C126.593 16.201 74.8489 -13.6735 33.4536 10.2261C14.242 21.3179 2.40723 41.8164 2.40723 64Z" fill="#92D7EE" fill-opacity="0.2"/>
<path d="M65.52 118.013C75.928 118.013 84.3651 116.747 84.3651 115.186C84.3651 113.625 75.928 112.359 65.52 112.359C55.1122 112.359 46.6748 113.625 46.6748 115.186C46.6748 116.747 55.1122 118.013 65.52 118.013Z" fill="#96C3D2"/>
<path d="M114.26 30.2789H13.6274V22.064C13.6334 19.798 15.4689 17.9626 17.7348 17.9567H110.152C112.418 17.9635 114.253 19.7984 114.26 22.064V30.2789Z" fill="white" stroke="#045571" stroke-width="0.24" stroke-linecap="round" stroke-linejoin="round"/>
<path d="M17.7349 24.1178C17.7311 25.6987 19.44 26.6911 20.8111 25.904C21.4506 25.5369 21.8441 24.8552 21.8424 24.1178C21.8463 22.5368 20.1374 21.5445 18.7662 22.3315C18.1267 22.6986 17.7331 23.3804 17.7349 24.1178Z" fill="#01A2D8" stroke="#045571" stroke-width="0.24" stroke-linecap="round" stroke-linejoin="round"/>
<path d="M25.9497 24.1178C25.9459 25.6987 27.6549 26.6911 29.026 25.904C29.6654 25.5369 30.059 24.8552 30.0572 24.1178C30.0611 22.5368 28.3522 21.5445 26.9811 22.3315C26.3415 22.6986 25.9479 23.3804 25.9497 24.1178Z" fill="#01A2D8" stroke="#045571" stroke-width="0.24" stroke-linecap="round" stroke-linejoin="round"/>
<path d="M34.1646 24.1178C34.1608 25.6987 35.8697 26.6911 37.2408 25.904C37.8802 25.5369 38.2738 24.8552 38.2721 24.1178C38.276 22.5368 36.567 21.5445 35.1959 22.3315C34.5564 22.6986 34.1628 23.3804 34.1646 24.1178Z" fill="#01A2D8" stroke="#045571" stroke-width="0.24" stroke-linecap="round" stroke-linejoin="round"/>
<path d="M114.26 95.998C114.253 98.2636 112.418 100.099 110.152 100.105H17.7348C15.4692 100.099 13.6343 98.2636 13.6274 95.998V30.2789H114.26V95.998Z" fill="white" stroke="#045571" stroke-width="0.24" stroke-linecap="round" stroke-linejoin="round"/>
<path d="M39.2376 79.8663C51.1495 99.3564 79.693 98.6427 90.616 78.5817C95.6909 69.261 95.4016 57.9396 89.8572 48.8904C77.9453 29.4002 49.4017 30.114 38.4787 50.175C33.4038 59.4957 33.6931 70.8171 39.2376 79.8663Z" fill="#01A2D8" stroke="#045571" stroke-width="0.24" stroke-linecap="round" stroke-linejoin="round"/>
<path d="M40.8086 64.3788C40.8086 82.6523 60.5903 94.0733 76.4158 84.9366C83.7603 80.6961 88.2849 72.8595 88.2849 64.3788C88.2849 46.1052 68.5031 34.6842 52.6777 43.821C45.3331 48.0614 40.8086 55.898 40.8086 64.3788Z" fill="white"/>
<path d="M81.3318 47.5936C94.2532 60.5148 88.3414 82.5785 70.6906 87.3082C53.0396 92.0378 36.8878 75.8862 41.6172 58.2352C42.6957 54.2102 44.8147 50.54 47.7612 47.5936C57.0316 38.3233 72.0615 38.3233 81.3318 47.5936Z" stroke="#045571" stroke-width="0.24" stroke-linecap="round" stroke-linejoin="round"/>
<path d="M95.3198 88.1571L88.7349 81.5738C87.7734 82.9227 86.7012 84.189 85.5294 85.3599C84.8205 86.0688 84.0862 86.7337 83.3267 87.3546L89.7237 93.7518L95.3198 88.1571Z" fill="white" stroke="#045571" stroke-width="0.24" stroke-linecap="round" stroke-linejoin="round"/>
<path d="M77.049 68.6058L74.6863 67.2413C75.1728 65.3876 75.1728 63.4398 74.6863 61.5861L77.049 60.2201C77.6085 59.8981 77.8005 59.1833 77.4775 58.6243L75.7234 55.5864C75.4003 55.0273 74.6849 54.8363 74.126 55.1595L71.7619 56.5225C70.4017 55.1727 68.7148 54.1988 66.8658 53.6958V50.9605C66.8658 50.315 66.3424 49.7917 65.6969 49.7917H62.1887C61.5432 49.7917 61.0198 50.315 61.0198 50.9605V53.6896C59.1681 54.1938 57.479 55.1699 56.1175 56.5225L53.7533 55.1595C53.1945 54.8363 52.4791 55.0273 52.156 55.5864L50.402 58.6244C50.0789 59.1833 50.2709 59.8982 50.8304 60.2202L53.193 61.5862C52.7066 63.4399 52.7066 65.3876 53.193 67.2413L50.8304 68.6058C50.2693 68.9307 50.0797 69.6502 50.408 70.2093L52.1622 73.2456C52.4847 73.8055 53.2007 73.9968 53.7595 73.6725L56.1237 72.3095C57.4841 73.659 59.171 74.633 61.0197 75.1364V77.8669C61.0197 78.5125 61.5432 79.0357 62.1887 79.0358H65.6969C66.3424 79.0358 66.8658 78.5125 66.8658 77.8669V75.1301C68.7148 74.6271 70.4017 73.6532 71.7619 72.3033L74.126 73.6663C74.6848 73.9906 75.4008 73.7993 75.7234 73.2394L77.4775 70.2093C77.8048 69.6486 77.6124 68.9285 77.049 68.6058ZM63.9427 69.6753C59.8918 69.6755 57.36 65.2903 59.3854 61.7819C61.4106 58.2737 66.4744 58.2734 68.5 61.7815C68.962 62.5816 69.2052 63.4891 69.2052 64.413C69.2061 67.3196 66.8494 69.6762 63.9427 69.6753Z" fill="#D2F4FF" stroke="#045571" stroke-width="0.24" stroke-linecap="round" stroke-linejoin="round"/>
<path d="M115.737 113.907L115.47 114.176C113.221 116.408 109.592 116.408 107.342 114.176L89.6769 96.5087C88.9332 95.7588 88.9332 94.5497 89.6769 93.7998L95.3615 88.1137C96.1119 87.3698 97.3216 87.3698 98.0719 88.1137L115.737 105.781C117.988 108.022 117.988 111.666 115.737 113.907Z" fill="#01A2D8" stroke="#045571" stroke-width="0.24" stroke-linecap="round" stroke-linejoin="round"/>
</svg>
