<svg width="129" height="128" viewBox="0 0 129 128" fill="none" xmlns="http://www.w3.org/2000/svg">
<path d="M2.40723 64C2.40723 111.799 54.1512 141.674 95.5464 117.774C114.758 106.682 126.593 86.1836 126.593 64C126.593 16.201 74.8489 -13.6735 33.4536 10.2261C14.242 21.3179 2.40723 41.8164 2.40723 64Z" fill="#E9F7FC"/>
<path d="M67.52 118.013C77.928 118.013 86.3651 116.747 86.3651 115.186C86.3651 113.625 77.928 112.359 67.52 112.359C57.1122 112.359 48.6748 113.625 48.6748 115.186C48.6748 116.747 57.1122 118.013 67.52 118.013Z" fill="#96C3D2"/>
<path d="M71.4431 57.7351C72.4283 59.4307 72.9481 61.3565 72.95 63.3175C72.9491 65.2177 73.3778 67.0933 74.2038 68.8045V68.7952C72.8283 69.3228 71.4091 69.7291 69.9627 70.0093V75.6221C69.9656 76.7617 69.0414 77.6866 67.9018 77.6843H61.7468C60.6128 77.6792 59.6975 76.7561 59.7018 75.6221V70.0092C56.2142 69.3245 52.8987 67.9497 49.9499 65.9656L45.9858 69.9417C45.1806 70.7342 43.8885 70.7342 43.0833 69.9417L38.7334 65.5852C37.9251 64.7928 37.9251 63.491 38.7334 62.6985L42.6976 58.7226C40.714 55.7736 39.3396 52.4581 38.6552 48.9706H33.045C31.9142 48.9677 30.9994 48.0498 31 46.919V40.7681C31.0029 39.6398 31.9168 38.7259 33.045 38.723H38.6592C38.9385 37.2812 39.343 35.8666 39.8679 34.4952L39.8879 34.5044C41.6025 35.3184 43.4767 35.7413 45.3748 35.7423C46.9514 35.7412 48.5096 36.0817 49.9419 36.7403L50.9214 37.2545C46.1277 47.4583 53.5493 59.1884 64.823 59.2262C67.1133 59.2273 69.3746 58.7146 71.4405 57.7259" fill="#01A2D8"/>
<path d="M58.2821 29.9386C57.2863 28.2525 56.7608 26.3303 56.7606 24.3721C56.7621 22.4719 56.3334 20.5961 55.5068 18.8851V18.8771C56.8689 18.3589 58.2732 17.9598 59.7042 17.6843V12.0622C59.6998 10.9282 60.6152 10.0051 61.7493 10H67.9015C69.0401 9.99924 69.9628 10.9236 69.9598 12.0622V17.6751C73.4439 18.3565 76.7553 19.7317 79.6971 21.7188L83.6732 17.7428C84.4785 16.9501 85.7705 16.9501 86.5757 17.7428L90.9189 22.0872C91.7289 22.8851 91.7289 24.1917 90.9189 24.9898L86.9547 28.9658C88.9408 31.9118 90.3109 35.2288 90.9825 38.7177H96.6126C97.7414 38.7199 98.656 39.634 98.6589 40.7627V46.919C98.656 48.0477 97.7414 48.9618 96.6126 48.964H90.9865C90.7072 50.3967 90.3109 51.804 89.8016 53.172L89.8215 53.1826C88.1102 52.3574 86.2344 51.9289 84.3346 51.9288C82.7606 51.9256 81.2048 51.591 79.7688 50.9467C79.4202 50.7877 79.0875 50.6127 78.7548 50.4166L78.735 50.4047C83.8017 39.7091 75.3901 27.5395 63.5941 28.4994C61.7438 28.65 59.936 29.1344 58.2583 29.9293" fill="#01A2D8"/>
<path d="M95.3722 69.2007C95.3254 69.2963 95.2383 69.3657 95.1349 69.3903C95.0297 69.411 94.9214 69.3747 94.8499 69.2949L89.8057 64.2585C89.5207 63.9717 89.1324 63.8117 88.7282 63.8145H85.0331C84.9708 63.8145 84.9072 63.8304 84.8436 63.8304C84.8304 63.898 84.8251 63.9669 84.8277 64.0359V67.7269C84.8291 68.1253 84.9888 68.5068 85.2717 68.7872L90.2987 73.8235C90.3738 73.8986 90.4088 74.0049 90.3928 74.1098C90.381 74.2183 90.3152 74.3135 90.2179 74.363C88.0178 75.4823 85.5234 75.8873 83.0822 75.5213C80.2182 75.0959 77.6196 73.6066 75.8047 71.3505C75.1671 70.5694 74.6294 69.7118 74.2037 68.7978C73.3776 67.0867 72.9491 65.2109 72.9499 63.3109C72.948 61.3499 72.4281 59.4241 71.4429 57.7285C70.8252 56.7094 70.0556 55.7906 69.1607 55.0036L53.7005 39.5314C52.9125 38.628 51.9801 37.8618 50.9411 37.2638C50.6084 37.0742 50.2785 36.8993 49.9418 36.7402C48.5093 36.0817 46.9512 35.7412 45.3747 35.7423C43.4765 35.7413 41.6023 35.3184 39.8877 34.5044C36.2958 32.8636 33.7699 29.5268 33.1655 25.6245C32.8029 23.1749 33.2128 20.6733 34.3384 18.4676C34.3821 18.3726 34.4718 18.307 34.5757 18.2941C34.6808 18.2763 34.7879 18.3115 34.862 18.3881L39.8983 23.4152C40.1824 23.7058 40.5707 23.8714 40.9771 23.875H44.6563C44.7345 23.875 44.7981 23.8591 44.8617 23.8591C44.8743 23.7915 44.8797 23.7226 44.8776 23.6538V19.964C44.8771 19.56 44.7176 19.1725 44.4336 18.8851L39.3973 13.8594C39.3333 13.7787 39.305 13.6753 39.3192 13.5731C39.331 13.465 39.3961 13.3699 39.4927 13.3201C41.6936 12.2033 44.1857 11.7933 46.6284 12.1458C49.4935 12.5804 52.091 14.0745 53.9072 16.3326C54.5452 17.1134 55.0831 17.9709 55.5082 18.8851C56.3349 20.5961 56.7635 22.472 56.7621 24.3721C56.7623 26.3302 57.2877 28.2526 58.2836 29.9386C58.881 30.9729 59.6475 31.8997 60.5513 32.6808L76.0102 48.1582C76.8016 49.0538 77.7292 49.819 78.7589 50.4258C79.0916 50.6153 79.4216 50.7903 79.7727 50.9559C81.2089 51.6003 82.7646 51.9349 84.3387 51.9381C86.2384 51.9382 88.1143 52.3667 89.8256 53.1918C95.9185 55.9577 98.4508 63.2641 95.3762 69.2073L95.3722 69.2007Z" fill="white"/>
<path d="M49.4502 97.8124C53.2253 99.032 57.0699 100.025 60.9635 100.785C65.3423 101.666 69.8836 101.233 74.017 99.5407C78.0752 97.8866 83.6921 95.4387 89.6322 92.3719C90.6226 91.8877 91.1733 90.8069 90.9828 89.7212C90.7028 88.363 89.328 87.529 87.9941 87.9081L73.5597 94.1133C73.0156 94.3478 72.4293 94.4686 71.8367 94.4685H68.5764C71.6393 94.4685 73.5823 93.5263 74.2754 91.7026C74.6676 90.6188 73.8626 89.4752 72.7101 89.4786H65.1663C64.1179 89.4786 60.6601 84.49 55.7364 84.49H49.4503L49.4502 97.8124Z" fill="white"/>
<path d="M44.4614 99.4572H48.1247C48.8567 99.4572 49.45 98.8639 49.45 98.1318V84.152C49.45 83.4201 48.8567 82.8268 48.1247 82.8267H44.4614V99.4572Z" fill="white"/>
<path d="M44.4614 99.4572H48.1247C48.8567 99.4572 49.45 98.8639 49.45 98.1318V84.152C49.45 83.4201 48.8567 82.8268 48.1247 82.8267H44.4614V99.4572Z" stroke="#045571" stroke-width="0.24" stroke-linecap="round" stroke-linejoin="round"/>
<path d="M34.4829 81.1633H44.4616V101.122H34.4829V81.1633Z" fill="#01A2D8"/>
<path d="M34.4829 81.1633H44.4616V101.122H34.4829V81.1633Z" stroke="#01A2D8" stroke-width="0.24" stroke-linecap="round" stroke-linejoin="round"/>
<path d="M41.7898 96.1306C41.7909 97.915 39.8598 99.0314 38.314 98.14C36.7681 97.2488 36.7668 95.0182 38.3117 94.125C38.6643 93.9212 39.0645 93.8139 39.4718 93.8139C40.7516 93.8138 41.7892 94.8508 41.7898 96.1306Z" fill="white" stroke="#045571" stroke-width="0.24" stroke-linecap="round" stroke-linejoin="round"/>
<path d="M68.5765 94.4685H62.2466" stroke="#045571" stroke-width="0.24" stroke-linecap="round" stroke-linejoin="round"/>
<path d="M49.4502 97.8124C53.2253 99.032 57.0699 100.025 60.9635 100.785C65.3423 101.666 69.8836 101.233 74.017 99.5406C78.0752 97.8866 83.6921 95.4387 89.6322 92.3719C90.6226 91.8877 91.1733 90.8069 90.9828 89.7212C90.7028 88.363 89.328 87.529 87.9941 87.9081L73.5597 94.1133C73.0156 94.3478 72.4293 94.4686 71.8367 94.4685H68.5764C71.6393 94.4685 73.5823 93.5263 74.2754 91.7026C74.6676 90.6188 73.8626 89.4752 72.7101 89.4786H65.1663C64.1179 89.4786 60.6601 84.49 55.7364 84.49H49.4503L49.4502 97.8124Z" stroke="#045571" stroke-width="0.24" stroke-linecap="round" stroke-linejoin="round"/>
<path d="M84.3347 51.9314C86.2344 51.9315 88.1103 52.36 89.8216 53.1852C95.9146 55.9511 98.4468 63.2575 95.3722 69.2007C95.3254 69.2963 95.2383 69.3657 95.1349 69.3903C95.0297 69.4111 94.9214 69.3747 94.8499 69.2949L89.8057 64.2585C89.5207 63.9717 89.1324 63.8117 88.7282 63.8145H85.0331C84.9708 63.8145 84.9072 63.8304 84.8436 63.8304C84.8304 63.898 84.8251 63.9669 84.8277 64.0359V67.7269C84.829 68.1253 84.9888 68.5068 85.2717 68.7872L90.2987 73.8235C90.3738 73.8986 90.4088 74.0049 90.3929 74.1098C90.3809 74.2183 90.3152 74.3135 90.2179 74.363C88.0178 75.4823 85.5234 75.8873 83.0822 75.5213C80.2181 75.0959 77.6196 73.6066 75.8047 71.3505C75.1671 70.5694 74.6293 69.7118 74.2037 68.7978C73.3776 67.0867 72.949 65.2109 72.9499 63.3109C72.948 61.3499 72.4281 59.4241 71.4429 57.7285C70.8252 56.7094 70.0556 55.7906 69.1607 55.0036L53.7005 39.5314C52.9125 38.628 51.9801 37.8618 50.9411 37.2638C50.6084 37.0742 50.2784 36.8993 49.9418 36.7402C48.5093 36.0817 46.9512 35.7412 45.3747 35.7423C43.4765 35.7413 41.6023 35.3184 39.8877 34.5044C36.2958 32.8636 33.7699 29.5268 33.1655 25.6245C32.8029 23.1749 33.2128 20.6733 34.3384 18.4676C34.3821 18.3726 34.4718 18.307 34.5757 18.2941C34.6808 18.2763 34.7879 18.3115 34.862 18.3881L39.8983 23.4152C40.1824 23.7058 40.5707 23.8714 40.9771 23.875H44.6563C44.7345 23.875 44.7981 23.8591 44.8617 23.8591C44.8743 23.7915 44.8797 23.7226 44.8776 23.6538V19.964C44.8771 19.56 44.7176 19.1725 44.4336 18.8851L39.3973 13.8594C39.3333 13.7787 39.305 13.6753 39.3192 13.5731C39.331 13.465 39.3961 13.3699 39.4927 13.3201C41.6936 12.2033 44.1857 11.7933 46.6284 12.1458C49.4935 12.5804 52.091 14.0745 53.9072 16.3326C54.5452 17.1134 55.0831 17.9709 55.5082 18.8851C56.3349 20.5961 56.7635 22.472 56.7621 24.3721C56.7623 26.3302 57.2877 28.2526 58.2836 29.9386C58.881 30.9729 59.6475 31.8997 60.5513 32.6808L76.0102 48.1582C76.8016 49.0538 77.7292 49.819 78.7589 50.4258C79.0916 50.6153 79.4215 50.7903 79.7727 50.9559C81.2089 51.6003 82.7646 51.9349 84.3387 51.9381" stroke="#045571" stroke-width="0.24" stroke-linecap="round" stroke-linejoin="round"/>
<path d="M58.2821 29.9386C57.2863 28.2525 56.7608 26.3303 56.7606 24.3721C56.7621 22.4719 56.3334 20.5961 55.5068 18.8851V18.8771C56.8689 18.3589 58.2732 17.9598 59.7042 17.6843V12.0622C59.6998 10.9282 60.6152 10.0051 61.7493 10H67.9015C69.0401 9.99924 69.9628 10.9236 69.9598 12.0622V17.6751C73.4439 18.3565 76.7553 19.7317 79.6971 21.7188L83.6732 17.7428C84.4785 16.9501 85.7705 16.9501 86.5757 17.7428L90.9189 22.0872C91.7289 22.8851 91.7289 24.1917 90.9189 24.9898L86.9547 28.9658C88.9408 31.9118 90.3109 35.2288 90.9825 38.7177H96.6126C97.7414 38.7199 98.656 39.634 98.6589 40.7627V46.919C98.656 48.0477 97.7414 48.9618 96.6126 48.964H90.9865C90.7072 50.3967 90.3109 51.804 89.8016 53.172L89.8215 53.1826C88.1102 52.3574 86.2344 51.9289 84.3346 51.9288C82.7606 51.9256 81.2048 51.591 79.7688 50.9467C79.4202 50.7877 79.0875 50.6127 78.7548 50.4166L78.735 50.4047C83.8017 39.7091 75.3901 27.5395 63.5941 28.4994C61.7438 28.65 59.936 29.1344 58.2583 29.9293" stroke="#045571" stroke-width="0.24" stroke-linecap="round" stroke-linejoin="round"/>
<path d="M50.9413 37.2638C50.6086 37.0742 50.2786 36.8993 49.9419 36.7402" stroke="#045571" stroke-width="0.24" stroke-linecap="round" stroke-linejoin="round"/>
<path d="M71.4431 57.7351C72.4283 59.4307 72.9481 61.3565 72.95 63.3175C72.9491 65.2177 73.3778 67.0933 74.2038 68.8045V68.7952C72.8283 69.3228 71.4091 69.7291 69.9627 70.0093V75.6221C69.9656 76.7617 69.0414 77.6866 67.9018 77.6843H61.7468C60.6128 77.6792 59.6975 76.7561 59.7018 75.6221V70.0092C56.2142 69.3245 52.8987 67.9497 49.9499 65.9656L45.9858 69.9417C45.1806 70.7342 43.8885 70.7342 43.0833 69.9417L38.7334 65.5852C37.9251 64.7928 37.9251 63.491 38.7334 62.6985L42.6976 58.7226C40.714 55.7736 39.3396 52.4581 38.6552 48.9706H33.045C31.9142 48.9677 30.9994 48.0498 31 46.919V40.7681C31.0029 39.6398 31.9168 38.7259 33.045 38.723H38.6592C38.9385 37.2812 39.343 35.8666 39.8679 34.4952L39.8879 34.5044C41.6025 35.3184 43.4767 35.7413 45.3748 35.7423C46.9514 35.7412 48.5096 36.0817 49.9419 36.7403L50.9214 37.2545C46.1277 47.4583 53.5493 59.1884 64.823 59.2262C67.1132 59.2273 69.3746 58.7146 71.4405 57.7259" stroke="#045571" stroke-width="0.24" stroke-linecap="round" stroke-linejoin="round"/>
</svg>
