<svg width="14" height="12" viewBox="0 0 14 12" fill="none" xmlns="http://www.w3.org/2000/svg">
<path d="M14 5.99994C13.9951 5.47384 13.7832 4.97084 13.41 4.59994L9.12 0.299948C8.93264 0.113697 8.67919 0.00915527 8.415 0.00915527C8.15081 0.00915527 7.89736 0.113697 7.71 0.299948C7.61627 0.392911 7.54188 0.503512 7.49111 0.625371C7.44034 0.74723 7.4142 0.877935 7.4142 1.00995C7.4142 1.14196 7.44034 1.27266 7.49111 1.39452C7.54188 1.51638 7.61627 1.62698 7.71 1.71995L11 4.99994H1C0.734784 4.99994 0.48043 5.1053 0.292893 5.29284C0.105357 5.48037 0 5.73472 0 5.99994C0 6.26516 0.105357 6.51951 0.292893 6.70705C0.48043 6.89458 0.734784 6.99994 1 6.99994H11L7.71 10.2899C7.5217 10.4769 7.41538 10.731 7.41444 10.9964C7.41351 11.2618 7.51802 11.5166 7.705 11.7049C7.89198 11.8932 8.1461 11.9996 8.41146 12.0005C8.67683 12.0014 8.9317 11.8969 9.12 11.7099L13.41 7.40994C13.7856 7.03659 13.9978 6.52952 14 5.99994Z" fill="#045571"/>
</svg>
