<svg width="16" height="16" viewBox="0 0 16 16" fill="none" xmlns="http://www.w3.org/2000/svg">
<g clip-path="url(#clip0_193_430)">
<path d="M4.66663 16C4.57889 16.0005 4.49191 15.9837 4.41069 15.9505C4.32946 15.9173 4.25559 15.8684 4.19329 15.8067C4.13081 15.7447 4.08121 15.6709 4.04737 15.5897C4.01352 15.5085 3.99609 15.4213 3.99609 15.3333C3.99609 15.2453 4.01352 15.1582 4.04737 15.0769C4.08121 14.9957 4.13081 14.922 4.19329 14.86L9.63996 9.41333C10.0145 9.03833 10.2249 8.53 10.2249 8C10.2249 7.47 10.0145 6.96167 9.63996 6.58667L4.19329 1.14001C4.06776 1.01447 3.99723 0.844212 3.99723 0.666678C3.99723 0.489143 4.06776 0.31888 4.19329 0.193345C4.31883 0.0678091 4.48909 -0.00271606 4.66663 -0.00271606C4.84416 -0.00271606 5.01442 0.0678091 5.13996 0.193345L10.5866 5.64C10.897 5.94964 11.1433 6.31748 11.3114 6.72245C11.4794 7.12741 11.5659 7.56155 11.5659 8C11.5659 8.43845 11.4794 8.87259 11.3114 9.27756C11.1433 9.68252 10.897 10.0504 10.5866 10.36L5.13996 15.8067C5.07767 15.8684 5.00379 15.9173 4.92256 15.9505C4.84134 15.9837 4.75436 16.0005 4.66663 16Z" fill="#045571"/>
</g>
<defs>
<clipPath id="clip0_193_430">
<rect width="16" height="16" fill="white"/>
</clipPath>
</defs>
</svg>
