<svg width="44" height="45" viewBox="0 0 44 45" fill="none" xmlns="http://www.w3.org/2000/svg">
<g clip-path="url(#clip0_287_1208)">
<path d="M34.0832 6.2406H28.652C29.1332 6.7906 29.0988 7.6156 28.5488 8.11404C28.3082 8.33748 27.9988 8.45779 27.6723 8.45779H16.4316C15.7098 8.45779 15.1082 7.87341 15.1082 7.13435C15.1082 6.80779 15.2285 6.49841 15.452 6.25779H9.91758C8.86914 6.25779 8.00977 7.11716 8.00977 8.1656V42.1625C8.00977 43.2109 8.86914 44.0703 9.91758 44.0703H34.0832C35.1316 44.0703 35.991 43.2109 35.991 42.1625V8.1656C35.991 7.09998 35.1316 6.2406 34.0832 6.2406Z" fill="#C7E8F3"/>
<path d="M34.083 8.01086H28.6518C28.3939 8.28586 28.0502 8.45774 27.6721 8.45774H16.4314C16.0533 8.45774 15.6924 8.30305 15.4518 8.01086H9.91738C9.83145 8.01086 9.77988 8.07961 9.7627 8.16555V42.1624C9.7627 42.2484 9.83145 42.2999 9.91738 42.3171H29.0299L34.2377 37.1093V8.16555C34.2205 8.07961 34.1689 8.01086 34.083 8.01086Z" fill="#FDFDFD"/>
<path d="M21.8203 36.6406C26.1394 36.6406 29.6406 33.1394 29.6406 28.8203C29.6406 24.5013 26.1394 21 21.8203 21C17.5013 21 14 24.5013 14 28.8203C14 33.1394 17.5013 36.6406 21.8203 36.6406Z" fill="#01A2D8"/>
<path d="M22.0348 34.2562C22.6138 34.2562 23.0832 33.7868 23.0832 33.2077C23.0832 32.6287 22.6138 32.1593 22.0348 32.1593C21.4557 32.1593 20.9863 32.6287 20.9863 33.2077C20.9863 33.7868 21.4557 34.2562 22.0348 34.2562Z" fill="#FDFDFD"/>
<path d="M22.0523 23.5656C21.4336 23.5484 20.9352 24.0469 20.918 24.6484C20.918 24.6828 20.918 24.7 20.918 24.7344L21.1758 30.0453C21.193 30.5266 21.6055 30.8875 22.0695 30.8703C22.5164 30.8531 22.8773 30.4922 22.8945 30.0453L23.1523 24.7859C23.1867 24.15 22.7055 23.6 22.0523 23.5656Z" fill="#FDFDFD"/>
<path d="M29.1674 37.1094C29.0814 37.1094 29.0299 37.1781 29.0127 37.2641V42.3172L34.2205 37.1094H29.1674Z" fill="#F8F8F8"/>
<path d="M22.0521 1.85779C20.299 1.85779 18.8896 3.28435 18.8896 5.02029V5.81091H20.66V5.02029C20.66 4.24685 21.2959 3.61091 22.0693 3.61091C22.8428 3.61091 23.4787 4.24685 23.4787 5.02029V5.81091H25.249V5.02029C25.2146 3.26716 23.7881 1.85779 22.0521 1.85779Z" fill="#045571"/>
<path d="M27.6725 5.81091H16.4318C15.71 5.81091 15.1084 6.39529 15.1084 7.13435C15.1084 7.87341 15.6928 8.45779 16.4318 8.45779H27.6725C28.3943 8.45779 28.9959 7.87341 28.9959 7.13435C28.9959 6.39529 28.3943 5.81091 27.6725 5.81091Z" fill="#045571"/>
<path d="M34.6334 36.9375C34.5646 36.7828 34.41 36.6797 34.2381 36.6797H29.185C28.8584 36.6797 28.6006 36.9375 28.6006 37.2641V42.3172C28.6006 42.5578 28.7896 42.7469 29.0303 42.7469C29.1506 42.7469 29.2537 42.6953 29.3396 42.6266L34.5475 37.4188C34.6506 37.2813 34.685 37.0922 34.6334 36.9375ZM29.46 41.2687V37.5391H33.1897L29.46 41.2687Z" fill="#F8F8F8"/>
<path d="M34.0832 5.81091H28.652C28.4113 5.81091 28.2223 5.99998 28.2223 6.2406C28.2223 6.34373 28.2566 6.44685 28.3254 6.53279C28.652 6.89373 28.6176 7.46091 28.2566 7.78748C28.0848 7.94216 27.8785 8.01091 27.6551 8.01091H16.4316C15.9332 8.01091 15.5379 7.6156 15.5379 7.11716C15.5379 6.89373 15.6238 6.68748 15.7613 6.5156C15.916 6.34373 15.8988 6.06873 15.727 5.91404C15.641 5.84529 15.5379 5.81091 15.4348 5.81091H9.91758C8.62852 5.81091 7.58008 6.85935 7.58008 8.14841V42.1453C7.58008 43.4344 8.62852 44.4828 9.91758 44.4828H34.0832C35.3723 44.4828 36.4207 43.4344 36.4207 42.1453V8.1656C36.4207 6.85935 35.3723 5.81091 34.0832 5.81091ZM35.5613 42.1625C35.5613 42.9875 34.891 43.6406 34.0832 43.6406H9.91758C9.09258 43.6406 8.43945 42.9703 8.43945 42.1625V8.1656C8.43945 7.3406 9.10977 6.68748 9.91758 6.68748H14.7301C14.4723 7.6156 15.0395 8.5781 15.9676 8.83591C16.1223 8.87029 16.277 8.88748 16.4145 8.88748H27.6723C28.6348 8.88748 29.4254 8.09685 29.4254 7.13435C29.4254 6.97966 29.4082 6.82498 29.3738 6.68748H34.1004C34.9254 6.68748 35.5785 7.35779 35.5785 8.1656L35.5613 42.1625Z" fill="#064358"/>
<path d="M27.6725 5.38123H16.4318C15.4693 5.38123 14.6787 6.17185 14.6787 7.13435C14.6787 8.09685 15.4693 8.88748 16.4318 8.88748H27.6725C28.635 8.88748 29.4256 8.09685 29.4256 7.13435C29.4256 6.17185 28.635 5.38123 27.6725 5.38123ZM27.6725 8.0281H16.4318C15.9334 8.0281 15.5381 7.63279 15.5381 7.13435C15.5381 6.63591 15.9334 6.2406 16.4318 6.2406H27.6725C28.1709 6.2406 28.5662 6.63591 28.5662 7.13435C28.5662 7.63279 28.1537 8.0281 27.6725 8.0281Z" fill="#F8F8F8"/>
<path d="M34.083 7.58118H28.6518C28.5314 7.58118 28.4111 7.63274 28.3252 7.71868C28.1533 7.90774 27.9127 8.01086 27.6549 8.01086H16.4314C16.1736 8.01086 15.933 7.90774 15.7611 7.71868C15.6752 7.63274 15.5549 7.58118 15.4346 7.58118H9.91738C9.59082 7.58118 9.33301 7.83899 9.33301 8.16555V42.1624C9.33301 42.489 9.59082 42.7468 9.91738 42.7468H29.0299C29.1502 42.7468 29.2533 42.6952 29.3393 42.6265L34.5471 37.4187C34.633 37.3327 34.6674 37.2296 34.6674 37.1093V8.16555C34.6502 7.83899 34.3924 7.58118 34.083 7.58118ZM33.808 36.9202L28.858 41.8702H10.1924V8.44055H15.2627C15.5893 8.71555 16.0018 8.88743 16.4143 8.88743H27.6721C28.1018 8.88743 28.5143 8.73274 28.8236 8.44055H33.808V36.9202Z" fill="#045571"/>
<path d="M22.0521 1.4281C20.0584 1.4281 18.46 3.04373 18.46 5.02029V5.81091C18.46 6.05154 18.649 6.2406 18.8896 6.2406H20.66C20.9006 6.2406 21.0896 6.05154 21.0896 5.81091V5.02029C21.0896 4.48748 21.5193 4.0406 22.0693 4.0406C22.6021 4.0406 23.049 4.47029 23.049 5.02029V5.81091C23.049 6.05154 23.2381 6.2406 23.4787 6.2406H25.249C25.4896 6.2406 25.6787 6.05154 25.6787 5.81091V5.02029C25.6443 3.02654 24.0287 1.4281 22.0521 1.4281ZM24.785 5.38123H23.874V5.02029C23.874 4.00623 23.049 3.18123 22.035 3.18123C21.0209 3.18123 20.1959 4.00623 20.1959 5.02029V5.38123H19.285V5.02029C19.285 3.50779 20.5053 2.28748 22.0178 2.28748C23.5303 2.28748 24.7506 3.50779 24.7506 5.02029L24.785 5.38123Z" fill="#F8F8F8"/>
<path d="M27.0703 8.02808C26.8297 8.02808 26.6406 8.21714 26.6406 8.45776V9.6437C26.6406 10.0046 26.3484 10.2968 25.9875 10.2968H18.0984C17.7375 10.2968 17.4453 10.0046 17.4453 9.6437V8.45776C17.4453 8.21714 17.2563 8.02808 17.0156 8.02808C16.775 8.02808 16.5859 8.21714 16.5859 8.45776V9.6437C16.5859 10.4687 17.2563 11.1562 18.0984 11.1562H25.9875C26.8125 11.1562 27.5 10.4859 27.5 9.6437V8.45776C27.5 8.21714 27.3109 8.02808 27.0703 8.02808Z" fill="#045571"/>
<path d="M24.6988 13.7H19.3535C19.1129 13.7 18.9238 13.889 18.9238 14.1296C18.9238 14.3703 19.1129 14.5593 19.3535 14.5593H24.6988C24.9395 14.5593 25.1285 14.3703 25.1285 14.1296C25.1285 13.889 24.9395 13.7 24.6988 13.7Z" fill="#045571"/>
<path d="M28.4285 15.986H15.6582C15.4176 15.986 15.2285 16.175 15.2285 16.4156C15.2285 16.6563 15.4176 16.8453 15.6582 16.8453H28.4285C28.6691 16.8453 28.8582 16.6563 28.8582 16.4156C28.8582 16.175 28.6691 15.986 28.4285 15.986Z" fill="#045571"/>
<path d="M28.4285 18.2546H15.6582C15.4176 18.2546 15.2285 18.4437 15.2285 18.6843C15.2285 18.925 15.4176 19.114 15.6582 19.114H28.4285C28.6691 19.114 28.8582 18.925 28.8582 18.6843C28.8582 18.4437 28.6691 18.2546 28.4285 18.2546Z" fill="#045571"/>
<path d="M22.0352 20.764C17.4805 20.764 13.7852 24.4593 13.7852 29.014C13.7852 33.5687 17.4805 37.264 22.0352 37.264C26.5898 37.264 30.2852 33.5687 30.2852 29.014C30.2852 24.4593 26.5898 20.7812 22.0352 20.764ZM22.0352 36.4219C17.9445 36.4219 14.6445 33.1047 14.6445 29.0312C14.6445 24.9578 17.9617 21.6406 22.0352 21.6406C26.1086 21.6406 29.4258 24.9578 29.4258 29.0312C29.4258 33.1047 26.1086 36.4047 22.0352 36.4219Z" fill="#F8F8F8"/>
<path d="M22.0348 31.7296C21.227 31.7296 20.5566 32.3827 20.5566 33.2077C20.5566 34.0327 21.2098 34.6859 22.0348 34.6859C22.8426 34.6859 23.5129 34.0327 23.5129 33.2077C23.5129 32.3827 22.8426 31.7296 22.0348 31.7296ZM22.0348 33.8265C21.691 33.8265 21.416 33.5515 21.416 33.2077C21.416 32.864 21.691 32.589 22.0348 32.589C22.3785 32.589 22.6535 32.864 22.6535 33.2077C22.6535 33.5343 22.3785 33.8265 22.0348 33.8265Z" fill="#F8F8F8"/>
<path d="M23.5645 24.8031C23.5816 24.3734 23.427 23.9438 23.1348 23.6172C22.8598 23.3078 22.4645 23.1359 22.052 23.1359C21.1926 23.1188 20.4879 23.7891 20.4707 24.6484C20.4707 24.6828 20.4707 24.7172 20.4707 24.7516L20.7285 30.0625C20.7629 30.7672 21.3645 31.3172 22.0691 31.2828C22.7395 31.2484 23.2723 30.7156 23.2895 30.0625L23.5645 24.8031ZM22.4645 30.0109C22.4645 30.2516 22.2754 30.4406 22.0348 30.4406C21.7941 30.4406 21.6051 30.2516 21.6051 30.0109L21.3473 24.7C21.3301 24.3219 21.6223 23.9953 22.0004 23.9781C22.0176 23.9781 22.0176 23.9781 22.0348 23.9781H22.052C22.2238 23.9781 22.3957 24.0641 22.516 24.1844C22.6535 24.3391 22.7223 24.5281 22.7223 24.7344L22.4645 30.0109Z" fill="#F8F8F8"/>
</g>
<defs>
<clipPath id="clip0_287_1208">
<rect width="44" height="44" fill="white" transform="translate(0 0.5)"/>
</clipPath>
</defs>
</svg>
