<svg width="17" height="17" viewBox="0 0 17 17" fill="none" xmlns="http://www.w3.org/2000/svg">
<g clip-path="url(#clip0_231_149)">
<path d="M13.3332 1.1665H3.99984C3.11611 1.16756 2.26888 1.51909 1.64398 2.14398C1.01909 2.76888 0.667562 3.61611 0.666504 4.49984L0.666504 12.4998C0.667562 13.3836 1.01909 14.2308 1.64398 14.8557C2.26888 15.4806 3.11611 15.8321 3.99984 15.8332H13.3332C14.2169 15.8321 15.0641 15.4806 15.689 14.8557C16.3139 14.2308 16.6654 13.3836 16.6665 12.4998V4.49984C16.6654 3.61611 16.3139 2.76888 15.689 2.14398C15.0641 1.51909 14.2169 1.16756 13.3332 1.1665ZM3.99984 2.49984H13.3332C13.7324 2.50062 14.1222 2.62085 14.4525 2.84504C14.7828 3.06923 15.0384 3.38714 15.1865 3.75784L10.0812 8.86384C9.70546 9.23805 9.19678 9.44815 8.6665 9.44815C8.13623 9.44815 7.62755 9.23805 7.25184 8.86384L2.1465 3.75784C2.2946 3.38714 2.55025 3.06923 2.88054 2.84504C3.21082 2.62085 3.60065 2.50062 3.99984 2.49984ZM13.3332 14.4998H3.99984C3.4694 14.4998 2.9607 14.2891 2.58562 13.9141C2.21055 13.539 1.99984 13.0303 1.99984 12.4998V5.49984L6.30917 9.8065C6.93492 10.4307 7.78268 10.7812 8.6665 10.7812C9.55033 10.7812 10.3981 10.4307 11.0238 9.8065L15.3332 5.49984V12.4998C15.3332 13.0303 15.1225 13.539 14.7474 13.9141C14.3723 14.2891 13.8636 14.4998 13.3332 14.4998Z" fill="#01A2D8"/>
</g>
<defs>
<clipPath id="clip0_231_149">
<rect width="16" height="16" fill="white" transform="translate(0.666504 0.5)"/>
</clipPath>
</defs>
</svg>
