<svg width="24" height="24" viewBox="0 0 24 24" fill="none" xmlns="http://www.w3.org/2000/svg">
<g clip-path="url(#clip0_343_5494)">
<path d="M16.8888 13.7782C16.3847 13.7786 15.8883 13.9016 15.4425 14.1367C14.9966 14.3718 14.6146 14.7118 14.3295 15.1275L9.99012 13.1682C10.2983 12.4239 10.2995 11.588 9.99345 10.8428L14.3268 8.8735C14.7494 9.48467 15.377 9.92414 16.0958 10.1122C16.8147 10.3003 17.5771 10.2244 18.2449 9.8985C18.9126 9.57256 19.4414 9.0181 19.7353 8.33568C20.0293 7.65325 20.0689 6.88808 19.847 6.17895C19.6251 5.46982 19.1564 4.8637 18.5259 4.47054C17.8954 4.07737 17.1449 3.92321 16.4105 4.03602C15.6761 4.14882 15.0064 4.52111 14.5229 5.08537C14.0395 5.64962 13.7743 6.36846 13.7755 7.1115C13.7783 7.28736 13.7961 7.46267 13.8288 7.6355L9.22212 9.72883C8.77968 9.31431 8.22579 9.03806 7.6285 8.93401C7.03121 8.82996 6.41654 8.90264 5.85999 9.14314C5.30344 9.38363 4.82927 9.78146 4.49572 10.2877C4.16216 10.794 3.98376 11.3867 3.98243 11.993C3.9811 12.5993 4.15689 13.1927 4.48822 13.7005C4.81954 14.2082 5.29197 14.6081 5.84745 14.8511C6.40293 15.094 7.01728 15.1694 7.61502 15.068C8.21276 14.9666 8.76786 14.6927 9.21212 14.2802L13.8308 16.3655C13.7987 16.5382 13.7811 16.7132 13.7781 16.8888C13.778 17.5043 13.9604 18.1059 14.3022 18.6176C14.644 19.1294 15.1299 19.5283 15.6985 19.7639C16.267 19.9994 16.8927 20.0611 17.4963 19.9411C18.0999 19.8211 18.6543 19.5247 19.0895 19.0895C19.5247 18.6544 19.821 18.0999 19.941 17.4963C20.0611 16.8927 19.9994 16.2671 19.7638 15.6985C19.5282 15.13 19.1294 14.6441 18.6176 14.3022C18.1058 13.9604 17.5042 13.778 16.8888 13.7782ZM16.8888 5.3335C17.2405 5.33337 17.5843 5.43753 17.8768 5.63282C18.1692 5.82811 18.3972 6.10575 18.5319 6.43063C18.6666 6.7555 18.7019 7.11302 18.6334 7.45796C18.5648 7.8029 18.3956 8.11977 18.1469 8.3685C17.8983 8.61722 17.5815 8.78663 17.2366 8.85529C16.8917 8.92394 16.5341 8.88877 16.2092 8.75422C15.8843 8.61967 15.6065 8.39178 15.4111 8.09937C15.2157 7.80697 15.1115 7.46318 15.1115 7.1115C15.1118 6.64017 15.2992 6.18823 15.6324 5.85489C15.9656 5.52154 16.4175 5.33403 16.8888 5.3335ZM7.11145 13.7782C6.75977 13.7783 6.41594 13.6741 6.12347 13.4788C5.83099 13.2836 5.60299 13.0059 5.46832 12.681C5.33364 12.3562 5.29834 11.9986 5.36687 11.6537C5.4354 11.3088 5.60468 10.9919 5.85331 10.7432C6.10194 10.4944 6.41875 10.325 6.76367 10.2564C7.10859 10.1877 7.46612 10.2229 7.79104 10.3574C8.11597 10.492 8.39369 10.7199 8.58909 11.0123C8.78449 11.3047 8.88878 11.6485 8.88878 12.0002C8.88826 12.4714 8.70085 12.9233 8.36767 13.2566C8.03449 13.5899 7.58273 13.7775 7.11145 13.7782ZM16.8888 18.6668C16.5371 18.6668 16.1934 18.5626 15.901 18.3672C15.6086 18.1718 15.3807 17.8941 15.2461 17.5692C15.1116 17.2444 15.0763 16.8869 15.1449 16.542C15.2136 16.1971 15.3829 15.8803 15.6315 15.6316C15.8802 15.3829 16.197 15.2136 16.5419 15.145C16.8868 15.0764 17.2443 15.1116 17.5692 15.2462C17.8941 15.3807 18.1718 15.6086 18.3671 15.901C18.5625 16.1934 18.6668 16.5372 18.6668 16.8888C18.6664 17.3603 18.479 17.8123 18.1456 18.1457C17.8123 18.479 17.3602 18.6665 16.8888 18.6668Z" fill="#045571"/>
</g>
<defs>
<clipPath id="clip0_343_5494">
<rect width="16" height="16" fill="white" transform="translate(4 4)"/>
</clipPath>
</defs>
</svg>
